<svg xmlns="http://www.w3.org/2000/svg" viewBox="0 0 750 500"><g id="freepik--background-complete--inject-169"><g><path d="M434.13,130.46s0-.08-.01-.22c0-.16,0-.37-.01-.62,0-.57-.02-1.37-.03-2.39-.02-2.09-.04-5.11-.08-8.9l.14,.14c-10.4,.02-26.95,.05-45.57,.09,.1-.1-.23,.23,.23-.23h0v1.56c0,.52,0,1.03,0,1.55,0,1.03,0,2.05,0,3.06,0,2.03,0,4.02,0,5.97l-.23-.23c12.98,.04,24.33,.08,32.47,.1,4.06,.03,7.31,.05,9.59,.07,1.11,.01,1.97,.02,2.59,.03,.28,0,.5,.01,.68,.01,.15,0,.24,.01,.24,.01s-.07,0-.21,.01c-.17,0-.38,0-.65,.01-.61,0-1.46,.02-2.54,.03-2.26,.02-5.5,.04-9.53,.07-8.18,.03-19.59,.06-32.63,.1h-.23v-.23c0-1.95,0-3.94,0-5.97v-3.06c0-.51,0-1.03,0-1.55v-1.53h0v-.02h0c.46-.47,.13-.13,.23-.24,18.61,.04,35.16,.07,45.57,.09h.14v.14c-.03,3.83-.06,6.87-.08,8.99-.01,1.01-.03,1.79-.03,2.36,0,.25-.01,.44-.01,.6,0,.13,0,.2-.01,.19Z" style="fill:#e0e0e0;"></path><path d="M440.31,118.32s-.01-.08-.02-.23c0-.17-.01-.39-.02-.64-.01-.6-.02-1.41-.04-2.43-.02-2.13-.05-5.13-.09-8.83l.17,.17c-7.09,.02-16.74,.04-27.38,.07-.21,.21,.28-.28,.23-.23h0v1.59c0,.53,0,1.05,0,1.57,0,1.04,0,2.07,0,3.09,0,2.03,0,4,0,5.88l-.22-.22c7.9,.04,14.71,.08,19.59,.11,2.41,.03,4.33,.05,5.71,.06,.64,.01,1.15,.02,1.54,.03,.35,0,.54,.02,.55,.03,0,0-.16,.02-.5,.03-.38,0-.87,.02-1.49,.03-1.36,.01-3.27,.04-5.65,.06-4.91,.03-11.77,.06-19.73,.11h-.22v-.22c0-1.89,0-3.85,0-5.88,0-1.02,0-2.05,0-3.09,0-.52,0-1.05,0-1.57v-1.57h0v-.02h0c-.05,.05,.44-.45,.23-.24,10.64,.03,20.28,.05,27.38,.07h.17v.17c-.04,3.74-.07,6.78-.09,8.93-.02,1.01-.03,1.81-.04,2.39-.01,.54-.02,.82-.04,.81Z" style="fill:#e0e0e0;"></path></g><g><path d="M682.75,378.61s0-.08-.01-.22c0-.16,0-.37-.01-.62,0-.57-.02-1.37-.03-2.39-.02-2.09-.04-5.11-.08-8.9l.14,.14c-10.4,.02-26.95,.05-45.57,.09,.1-.1-.23,.23,.23-.23h0v1.56c0,.52,0,1.03,0,1.55,0,1.03,0,2.05,0,3.06,0,2.03,0,4.02,0,5.97l-.23-.23c12.98,.04,24.33,.08,32.47,.1,4.06,.03,7.31,.05,9.59,.07,1.11,.01,1.97,.02,2.59,.03,.28,0,.5,.01,.68,.01,.15,0,.24,.01,.24,.01s-.07,0-.21,.01c-.17,0-.38,0-.65,.01-.61,0-1.46,.02-2.54,.03-2.26,.02-5.5,.04-9.53,.07-8.18,.03-19.59,.06-32.63,.1h-.23v-.23c0-1.95,0-3.94,0-5.97,0-1.01,0-2.03,0-3.06,0-.51,0-1.03,0-1.55v-1.53h0v-.02h0c.46-.47,.13-.13,.23-.24,18.61,.04,35.16,.07,45.57,.09h.14v.14c-.03,3.83-.06,6.87-.08,8.99-.01,1.01-.03,1.79-.03,2.36,0,.25-.01,.44-.01,.6,0,.13,0,.2-.01,.19Z" style="fill:#e0e0e0;"></path><path d="M688.93,366.48s-.01-.08-.02-.23c0-.17-.01-.39-.02-.64-.01-.6-.02-1.41-.04-2.43-.02-2.13-.05-5.13-.09-8.83l.17,.17c-7.09,.02-16.74,.04-27.38,.07-.21,.21,.28-.28,.23-.23h0v1.59c0,.53,0,1.05,0,1.57,0,1.04,0,2.07,0,3.09,0,2.03,0,4,0,5.88l-.22-.22c7.9,.04,14.71,.08,19.59,.11,2.41,.03,4.33,.05,5.71,.06,.64,.01,1.15,.02,1.54,.03,.35,0,.54,.02,.55,.03,0,0-.16,.02-.5,.03-.38,0-.87,.02-1.49,.03-1.36,.01-3.27,.04-5.65,.06-4.91,.03-11.77,.06-19.73,.11h-.22v-.22c0-1.89,0-3.85,0-5.88,0-1.02,0-2.05,0-3.09,0-.52,0-1.05,0-1.57v-1.57h0v-.02h0c-.05,.05,.44-.45,.23-.24,10.64,.03,20.28,.05,27.38,.07h.17v.17c-.04,3.74-.07,6.78-.09,8.93-.02,1.01-.03,1.81-.04,2.39-.01,.54-.02,.82-.04,.81Z" style="fill:#e0e0e0;"></path></g><path d="M108.98,64.52s0-.08-.01-.22c0-.16,0-.37-.02-.62,0-.57-.02-1.37-.04-2.4-.02-2.1-.05-5.12-.08-8.93l.15,.14c-10.87,.02-28.17,.05-47.62,.09,.11-.1-.24,.23,.24-.23h0v1.56c0,.52,0,1.04,0,1.55,0,1.03,0,2.06,0,3.07,0,2.03,0,4.03,0,5.99l-.24-.23c13.56,.04,25.43,.08,33.94,.1,4.24,.03,7.64,.05,10.02,.07,1.16,.01,2.06,.02,2.71,.03,.29,0,.52,.01,.71,.01,.16,0,.25,0,.25,.01,0,0-.07,0-.22,.01h-.68c-.64,.02-1.52,.03-2.66,.04-2.36,.02-5.75,.04-9.96,.07-8.55,.03-20.48,.06-34.1,.1h-.24v-.23c0-1.96,0-3.96,0-5.99,0-1.02,0-2.04,0-3.07,0-.52,0-1.03,0-1.55v-1.54h0v-.02h0c.49-.47,.14-.13,.25-.24,19.45,.04,36.75,.07,47.62,.09h.15v.14c-.04,3.85-.06,6.9-.08,9.02-.02,1.01-.03,1.8-.04,2.36,0,.25-.01,.44-.02,.6,0,.13,0,.2-.01,.19Z" style="fill:#e0e0e0;"></path><path d="M696.58,263.5s0-.08-.01-.22c0-.16,0-.37-.02-.62,0-.57-.02-1.37-.04-2.4-.02-2.1-.05-5.12-.08-8.93l.15,.14c-10.87,.02-28.17,.05-47.62,.09,.11-.1-.24,.23,.24-.23h0v1.56c0,.52,0,1.04,0,1.55,0,1.03,0,2.06,0,3.07,0,2.03,0,4.03,0,5.99l-.24-.23c13.56,.04,25.43,.08,33.94,.1,4.24,.03,7.64,.05,10.02,.07,1.16,.01,2.06,.02,2.71,.03,.29,0,.52,.01,.71,.01,.16,0,.25,0,.25,.01,0,0-.07,0-.22,.01h-.68c-.64,.02-1.52,.03-2.66,.04-2.36,.02-5.75,.04-9.96,.07-8.55,.03-20.48,.06-34.1,.1h-.24v-.23c0-1.96,0-3.96,0-5.99,0-1.02,0-2.04,0-3.07,0-.52,0-1.03,0-1.55v-1.54h0v-.02h0c.49-.47,.14-.13,.25-.24,19.45,.04,36.75,.07,47.62,.09h.15v.14c-.04,3.85-.06,6.9-.08,9.02-.02,1.01-.03,1.8-.04,2.36,0,.25-.01,.44-.02,.6,0,.13,0,.2-.01,.19Z" style="fill:#e0e0e0;"></path><g><rect x="352.96" y="35.85" width="11.47" height="164.44" style="fill:#e0e0e0;"></rect><rect x="194.52" y="35.85" width="164.44" height="164.44" style="fill:#f5f5f5;"></rect><rect x="199.08" y="40.41" width="155.32" height="155.32" style="fill:#fff;"></rect><path d="M358.96,35.85s-.09,.11-.28,.31c-.21,.22-.49,.51-.86,.89-.78,.79-1.9,1.94-3.35,3.42l-.03,.03h-.04c-12.6,.09-42.63,.15-77.66,.15s-65.07-.06-77.66-.15h-.04l-.03-.03c-1.45-1.47-2.57-2.62-3.35-3.42-.37-.38-.65-.68-.86-.89-.19-.2-.28-.31-.28-.31,0,0,.11,.09,.31,.28,.22,.21,.51,.49,.89,.86,.79,.78,1.94,1.9,3.42,3.35l-.07-.03c12.6-.09,42.63-.15,77.66-.15s65.06,.06,77.66,.15l-.07,.03c1.47-1.45,2.62-2.57,3.42-3.35l.89-.86c.2-.19,.31-.28,.31-.28Z" style="fill:#e0e0e0;"></path><path d="M194.52,200.28s.09-.11,.28-.31c.21-.22,.49-.51,.86-.89,.78-.8,1.9-1.94,3.35-3.42l.03-.03h.04c12.6-.09,42.63-.15,77.66-.15s65.07,.06,77.66,.15h.04l.03,.03c1.45,1.47,2.57,2.62,3.35,3.42,.37,.38,.65,.68,.86,.89,.19,.2,.28,.31,.28,.31,0,0-.11-.09-.31-.28-.22-.21-.51-.49-.89-.86-.79-.78-1.94-1.9-3.42-3.35l.07,.03c-12.6,.09-42.63,.15-77.66,.15s-65.06-.06-77.66-.15l.07-.03c-1.47,1.45-2.62,2.57-3.42,3.35-.38,.37-.68,.65-.89,.86-.2,.19-.31,.28-.31,.28Z" style="fill:#e0e0e0;"></path><rect x="252.03" y="88.61" width="57.09" height="57.09" style="fill:#e0e0e0;"></rect></g><g><rect x="558.68" y="70.17" width="6.55" height="93.98" style="fill:#e0e0e0;"></rect><rect x="468.13" y="70.17" width="93.98" height="93.98" style="fill:#f5f5f5;"></rect><rect x="470.74" y="72.77" width="88.77" height="88.77" style="fill:#fff;"></rect><path d="M562.11,70.17s-.05,.06-.16,.18l-.49,.51c-.45,.45-1.09,1.11-1.92,1.95l-.02,.02h-.02c-7.2,.05-24.36,.09-44.38,.09s-37.19-.04-44.39-.09h-.02l-.02-.02c-.83-.84-1.47-1.5-1.92-1.95l-.49-.51c-.11-.12-.16-.18-.16-.18,0,0,.06,.05,.18,.16l.51,.49c.45,.45,1.11,1.09,1.95,1.92l-.04-.02c7.2-.05,24.36-.09,44.39-.09s37.18,.04,44.38,.09l-.04,.02c.84-.83,1.5-1.47,1.95-1.92l.51-.49c.12-.11,.18-.16,.18-.16Z" style="fill:#e0e0e0;"></path><path d="M468.13,164.15s.05-.06,.16-.18l.49-.51c.45-.45,1.09-1.11,1.92-1.95l.02-.02h.02c7.2-.05,24.36-.09,44.38-.09s37.19,.04,44.39,.09h.02l.02,.02c.83,.84,1.47,1.5,1.92,1.95l.49,.51c.11,.12,.16,.18,.16,.18,0,0-.06-.05-.18-.16l-.51-.49c-.45-.45-1.11-1.09-1.95-1.92l.04,.02c-7.2,.05-24.36,.09-44.39,.09s-37.18-.04-44.38-.09l.04-.02c-.84,.83-1.5,1.47-1.95,1.92l-.51,.49c-.12,.11-.18,.16-.18,.16Z" style="fill:#e0e0e0;"></path><rect x="501" y="100.32" width="32.63" height="32.63" style="fill:#e0e0e0;"></rect></g><g><rect x="110.57" y="127.53" width="47.62" height="12.18" style="fill:#ebebeb;"></rect><path d="M138.06,152.53s0-.08-.01-.22c0-.16,0-.37-.02-.62,0-.57-.02-1.37-.04-2.4-.02-2.1-.05-5.12-.08-8.93l.15,.14c-10.87,.02-28.17,.05-47.62,.09,.11-.1-.24,.23,.24-.23h0v1.56c0,.52,0,1.04,0,1.55,0,1.03,0,2.06,0,3.07,0,2.03,0,4.03,0,5.99l-.24-.23c13.56,.04,25.43,.08,33.94,.1,4.24,.03,7.64,.05,10.02,.07,1.16,.01,2.06,.02,2.71,.03,.29,0,.52,.01,.71,.01,.16,0,.25,0,.25,.01,0,0-.07,0-.22,.01h-.68c-.64,.02-1.52,.03-2.66,.04-2.36,.02-5.75,.04-9.96,.07-8.55,.03-20.48,.06-34.1,.1h-.24v-.23c0-1.96,0-3.96,0-5.99,0-1.02,0-2.04,0-3.07,0-.52,0-1.03,0-1.55v-1.54h0v-.02h0c.49-.47,.14-.13,.25-.24,19.45,.04,36.75,.07,47.62,.09h.15v.14c-.04,3.85-.06,6.9-.08,9.02-.02,1.01-.03,1.8-.04,2.36,0,.25-.01,.44-.02,.6,0,.13,0,.2-.01,.19Z" style="fill:#e0e0e0;"></path></g><g><rect x="653.36" y="163.98" width="47.62" height="12.18" style="fill:#ebebeb;"></rect><path d="M680.85,188.98s0-.08-.01-.22c0-.16,0-.37-.02-.62,0-.57-.02-1.37-.04-2.4-.02-2.1-.05-5.12-.08-8.93l.15,.14c-10.87,.02-28.17,.05-47.62,.09,.11-.1-.24,.23,.24-.23h0v1.56c0,.52,0,1.04,0,1.55,0,1.03,0,2.06,0,3.07,0,2.03,0,4.03,0,5.99l-.24-.23c13.56,.04,25.43,.08,33.94,.1,4.24,.03,7.64,.05,10.02,.07,1.16,.01,2.06,.02,2.71,.03,.29,0,.52,.01,.71,.01,.16,0,.25,0,.25,.01,0,0-.07,0-.22,.01h-.68c-.64,.02-1.52,.03-2.66,.04-2.36,.02-5.75,.04-9.96,.07-8.55,.03-20.48,.06-34.1,.1h-.24v-.23c0-1.96,0-3.96,0-5.99,0-1.02,0-2.04,0-3.07,0-.52,0-1.03,0-1.55v-1.54h0v-.02h0c.49-.47,.14-.13,.25-.24,19.45,.04,36.75,.07,47.62,.09h.15v.14c-.04,3.85-.06,6.9-.08,9.02-.02,1.01-.03,1.8-.04,2.36,0,.25-.01,.44-.02,.6,0,.13,0,.2-.01,.19Z" style="fill:#e0e0e0;"></path></g><g><rect x="92.37" y="381.17" width="47.62" height="12.18" style="fill:#ebebeb;"></rect><path d="M119.86,406.17s0-.08-.01-.22c0-.16,0-.37-.02-.62,0-.57-.02-1.37-.04-2.4-.02-2.1-.05-5.12-.08-8.93l.15,.14c-10.87,.02-28.17,.05-47.62,.09,.11-.1-.24,.23,.24-.23h0v1.56c0,.52,0,1.04,0,1.55,0,1.03,0,2.06,0,3.07,0,2.03,0,4.03,0,5.99l-.24-.23c13.56,.04,25.43,.08,33.94,.1,4.24,.03,7.64,.05,10.02,.07,1.16,.01,2.06,.02,2.71,.03,.29,0,.52,.01,.71,.01,.16,0,.25,0,.25,.01,0,0-.07,0-.22,.01h-.68c-.64,.02-1.52,.03-2.66,.04-2.36,.02-5.75,.04-9.96,.07-8.55,.03-20.48,.06-34.1,.1h-.24v-.23c0-1.96,0-3.96,0-5.99,0-1.02,0-2.04,0-3.07,0-.52,0-1.03,0-1.55v-1.54h0v-.02h0c.49-.47,.14-.13,.25-.24,19.45,.04,36.75,.07,47.62,.09h.15v.14c-.04,3.85-.06,6.9-.08,9.02-.02,1.01-.03,1.8-.04,2.36,0,.25-.01,.44-.02,.6,0,.13,0,.2-.01,.19Z" style="fill:#e0e0e0;"></path></g><path d="M190.32,248.45s0-.08-.01-.22c0-.16,0-.37-.02-.62,0-.57-.02-1.37-.04-2.4-.02-2.1-.05-5.12-.08-8.93l.15,.14c-10.87,.02-28.17,.05-47.62,.09,.11-.1-.24,.23,.24-.23h0v1.56c0,.52,0,1.04,0,1.55,0,1.03,0,2.06,0,3.07,0,2.03,0,4.03,0,5.99l-.24-.23c13.56,.04,25.43,.08,33.94,.1,4.24,.03,7.64,.05,10.02,.07,1.16,.01,2.06,.02,2.71,.03,.29,0,.52,.01,.71,.01,.16,0,.25,0,.25,.01,0,0-.07,0-.22,.01h-.68c-.64,.02-1.52,.03-2.66,.04-2.36,.02-5.75,.04-9.96,.07-8.55,.03-20.48,.06-34.1,.1h-.24v-.23c0-1.96,0-3.96,0-5.99,0-1.02,0-2.04,0-3.07,0-.52,0-1.03,0-1.55v-1.54h0v-.02h0c.49-.47,.14-.13,.25-.24,19.45,.04,36.75,.07,47.62,.09h.15v.14c-.04,3.85-.06,6.9-.08,9.02-.02,1.01-.03,1.8-.04,2.36,0,.25-.01,.44-.02,.6,0,.13,0,.2-.01,.19Z" style="fill:#e0e0e0;"></path><path d="M668.2,93.55s0-.08-.01-.22c0-.16,0-.37-.02-.62,0-.57-.02-1.37-.04-2.4-.02-2.1-.05-5.12-.08-8.93l.15,.14c-10.87,.02-28.17,.05-47.62,.09,.11-.1-.24,.23,.24-.23h0v1.56c0,.52,0,1.04,0,1.55,0,1.03,0,2.06,0,3.07,0,2.03,0,4.03,0,5.99l-.24-.23c13.56,.04,25.43,.08,33.94,.1,4.24,.03,7.64,.05,10.02,.07,1.16,.01,2.06,.02,2.71,.03,.29,0,.52,.01,.71,.01,.16,0,.25,0,.25,.01,0,0-.07,0-.22,.01h-.68c-.64,.02-1.52,.03-2.66,.04-2.36,.02-5.75,.04-9.96,.07-8.55,.03-20.48,.06-34.1,.1h-.24v-.23c0-1.96,0-3.96,0-5.99,0-1.02,0-2.04,0-3.07,0-.52,0-1.03,0-1.55v-1.54h0v-.02h0c.49-.47,.14-.13,.25-.24,19.45,.04,36.75,.07,47.62,.09h.15v.14c-.04,3.85-.06,6.9-.08,9.02-.02,1.01-.03,1.8-.04,2.36,0,.25-.01,.44-.02,.6,0,.13,0,.2-.01,.19Z" style="fill:#e0e0e0;"></path></g><g id="freepik--Floor--inject-169"><path d="M718.14,452.04c0,.14-153.64,.26-343.12,.26s-343.15-.12-343.15-.26,153.61-.26,343.15-.26,343.12,.12,343.12,.26Z" style="fill:#263238;"></path></g><g id="freepik--Table--inject-169"><g><g><g><g><rect x="78.03" y="231.68" width="2.99" height="28.84" style="fill:#263238;"></rect><g><rect x="61.11" y="268.16" width="36.82" height="68.45" style="fill:#455a64;"></rect><rect x="68.62" y="258.58" width="22.42" height="9.58" style="fill:#455a64;"></rect></g><g><rect x="37.67" y="209.31" width="80.71" height="43.32" style="fill:#e0e0e0;"></rect><path d="M118.38,252.63s-.01-.27-.02-.79c0-.53-.01-1.29-.02-2.27-.01-2-.03-4.92-.05-8.66-.03-7.5-.06-18.3-.11-31.6l.21,.21c-21.4,.02-49.72,.04-80.7,.07h0l.28-.28c0,15.3-.01,29.96-.02,43.32l-.26-.26c23.56,.05,43.7,.09,57.97,.13,7.13,.03,12.8,.05,16.71,.07,1.93,.01,3.43,.02,4.47,.03,.5,0,.88,.01,1.16,.02,.26,0,.4,.02,.4,.02,0,0-.12,.01-.37,.02-.27,0-.65,0-1.13,.02-1.02,0-2.5,.02-4.41,.03-3.89,.02-9.54,.04-16.65,.07-14.31,.03-34.51,.07-58.15,.13h-.26v-.26c0-13.36-.01-28.02-.02-43.32v-.28h.28c30.98,.03,59.3,.05,80.7,.07h.21v.21c-.05,13.35-.09,24.19-.11,31.72-.02,3.72-.04,6.62-.05,8.62-.01,.97-.02,1.71-.02,2.23,0,.5-.02,.75-.02,.75Z" style="fill:#263238;"></path></g><path d="M97.76,268.16c0,.16-8.17,.29-18.24,.29s-18.25-.13-18.25-.29,8.17-.29,18.25-.29,18.24,.13,18.24,.29Z" style="fill:#263238;"></path></g><rect x="42.21" y="336.41" width="112.33" height="37.15" style="fill:#ae7461;"></rect><polygon points="46.28 452 54.4 373.56 65.28 373.56 52.61 452.04 46.28 452" style="fill:#ae7461;"></polygon><polygon points="158.09 451.98 145.9 373.56 135.02 373.56 151.76 452.02 158.09 451.98" style="fill:#ae7461;"></polygon><rect x="53.62" y="414.36" width="94.52" height="8.45" style="fill:#ae7461;"></rect><path d="M91.83,339.3c0,4.02,3.24,7.27,7.24,7.27s7.24-3.26,7.24-7.27h-14.49Z" style="fill:#263238;"></path><path d="M154.23,373.47c0,.15-25.06,.28-55.97,.28s-55.97-.12-55.97-.28,25.06-.28,55.97-.28,55.97,.12,55.97,.28Z" style="fill:#263238;"></path></g><path d="M148.02,369.65s-.02-.19-.03-.55c0-.38-.02-.9-.03-1.58-.01-1.4-.03-3.43-.06-6.04-.03-5.24-.08-12.8-.13-22.18l.25,.19c-25.01,.02-60.22,.05-99.19,.08-.32,.25,.43-.34,.35-.28h0v3.96c0,1.32,0,2.62,0,3.93,0,2.6,0,5.18,0,7.71,0,5.08,0,10.01-.01,14.75l-.34-.27c28.67,.05,53.42,.09,71.03,.13,8.8,.03,15.82,.06,20.67,.07,2.4,.01,4.26,.03,5.55,.03l1.44,.02c.33,0,.5,.01,.5,.02,0,0-.15,.01-.46,.02-.34,0-.8,0-1.4,.02-1.28,0-3.11,.02-5.48,.03-4.83,.02-11.82,.04-20.59,.07-17.67,.03-42.5,.07-71.27,.13h-.34v-.27c0-4.74,0-9.67-.01-14.75,0-2.54,0-5.11,0-7.71,0-1.3,0-2.61,0-3.93v-3.95h0c-.08,.05,.68-.54,.36-.29,38.97,.03,74.18,.06,99.19,.08h.25v.19c-.06,9.42-.1,17.02-.14,22.29-.03,2.59-.05,4.6-.06,6-.01,.66-.02,1.18-.03,1.54,0,.35-.03,.51-.03,.51Z" style="fill:#263238;"></path></g><g><rect x="112.13" y="297.23" width="22.89" height="39.18" style="fill:#C53F3F;"></rect><g style="opacity:.3;"><rect x="112.13" y="315.18" width="22.89" height="18.81"></rect></g><g style="opacity:.3;"><path d="M128.92,307.88c-.05,0-.04-.44-.25-1.18-.21-.72-.71-1.78-1.8-2.59-1.06-.81-2.79-1.26-4.46-.63-1.66,.58-3.08,2.34-3.07,4.39-.02,2.06,1.41,3.82,3.07,4.4,1.67,.63,3.4,.18,4.46-.63,1.09-.81,1.6-1.86,1.8-2.59,.21-.74,.2-1.18,.25-1.18,.02,0,.03,.11,.04,.32,.01,.21-.01,.52-.09,.91-.15,.77-.63,1.92-1.78,2.83-1.11,.91-2.99,1.45-4.85,.79-1.84-.61-3.44-2.56-3.42-4.85-.02-2.29,1.59-4.24,3.42-4.84,1.85-.67,3.74-.12,4.85,.79,1.15,.91,1.62,2.06,1.78,2.83,.08,.39,.1,.7,.09,.91,0,.21-.02,.32-.04,.32Z"></path></g><path d="M134.99,299.6c0,.14-5.15,.26-11.5,.26s-11.5-.12-11.5-.26,5.15-.26,11.5-.26,11.5,.12,11.5,.26Z" style="fill:#263238;"></path><path d="M134.99,333.99c0,.14-5.15,.26-11.5,.26s-11.5-.12-11.5-.26,5.15-.26,11.5-.26,11.5,.12,11.5,.26Z" style="fill:#263238;"></path><g style="opacity:.3;"><path d="M124.2,310.5c-.14,0-.26-1.06-.26-2.37s.12-2.37,.26-2.37,.26,1.06,.26,2.37-.12,2.37-.26,2.37Z"></path></g></g><g><path d="M149.89,296.75c-.1,.01-.17-1.17-.84-2.91-.65-1.73-2.01-4.01-4.3-5.68-2.29-1.67-4.88-2.28-6.72-2.36-1.86-.1-3.01,.19-3.02,.09,0-.03,.27-.13,.79-.25,.52-.12,1.29-.22,2.25-.21,1.9,0,4.62,.57,7.02,2.31,2.39,1.75,3.76,4.17,4.34,5.98,.3,.91,.43,1.67,.48,2.2,.05,.53,.04,.82,0,.83Z" style="fill:#263238;"></path><path d="M158.77,292.74c-.1,.02-.35-1.59-1.37-3.97-1.01-2.36-2.95-5.48-6.02-7.95-3.08-2.47-6.54-3.7-9.06-4.17-2.54-.49-4.17-.39-4.17-.49,0-.03,.4-.09,1.13-.1,.73-.02,1.8,.03,3.1,.23,2.59,.39,6.16,1.59,9.32,4.13,3.16,2.54,5.1,5.77,6.04,8.22,.48,1.23,.75,2.26,.89,2.98,.14,.72,.17,1.13,.14,1.13Z" style="fill:#263238;"></path><path d="M170.09,288.12s-.17-.55-.44-1.53c-.26-.99-.71-2.4-1.42-4.08-1.4-3.34-4.13-7.74-8.47-11.23-4.34-3.49-9.23-5.21-12.8-5.86-1.79-.34-3.27-.47-4.29-.51-1.02-.05-1.59-.06-1.59-.1,0-.02,.14-.04,.41-.06,.27-.01,.67-.06,1.18-.05,1.03-.02,2.52,.06,4.35,.35,3.63,.56,8.63,2.26,13.06,5.81,4.43,3.56,7.16,8.08,8.49,11.5,.68,1.72,1.08,3.16,1.28,4.17,.12,.5,.16,.9,.21,1.17,.04,.27,.05,.41,.03,.41Z" style="fill:#263238;"></path></g></g></g><g id="freepik--Plant--inject-169"><g><path d="M661.55,323.35c-2.11-.29-4.01,.69-5.01,2.13-1,1.44-1.24,3.28-1.2,5.09,.04,1.6,.3,3.3,1.38,4.75,1.28,1.73,3.57,2.84,5.77,3.14,2.2,.31,4.33-.1,6.23-.78,.49-2.07-.03-4.65-.49-6.86-.33-1.59-.9-3.22-2.02-4.64-1.11-1.41-2.84-2.59-4.67-2.84Z" style="fill:#455a64;"></path><path d="M707.1,318.52s-.05,.25-.2,.71c-.17,.51-.39,1.18-.67,2.01-.6,1.74-1.42,4.27-2.39,7.41-.97,3.14-2.04,6.91-3.12,11.12-1.06,4.21-2.11,8.87-3.05,13.8-.92,4.93-1.63,9.66-2.19,13.97-.53,4.31-.91,8.21-1.15,11.49-.25,3.28-.4,5.93-.48,7.77l-.11,2.12c-.03,.48-.06,.74-.08,.74s-.03-.25-.03-.74c0-.54,0-1.24,.01-2.12,.01-1.84,.11-4.5,.31-7.79,.19-3.29,.53-7.2,1.04-11.52,.53-4.32,1.23-9.06,2.15-14.01,.94-4.94,2.02-9.6,3.1-13.82,1.11-4.21,2.21-7.98,3.23-11.11,1.01-3.13,1.89-5.65,2.55-7.37,.31-.82,.57-1.48,.76-1.98,.18-.45,.28-.68,.3-.68Z" style="fill:#263238;"></path><path d="M665.91,333.18s.15,.19,.4,.57c.27,.43,.62,1,1.05,1.7,.91,1.47,2.16,3.65,3.63,6.38,1.48,2.72,3.12,6.03,4.83,9.76,1.68,3.74,3.41,7.9,5.03,12.35,1.6,4.45,2.93,8.76,4.03,12.71,1.07,3.96,1.92,7.55,2.53,10.59,.61,3.04,1.05,5.51,1.29,7.22,.11,.81,.2,1.47,.28,1.98,.06,.45,.08,.69,.06,.69s-.08-.23-.17-.68c-.1-.5-.22-1.15-.37-1.96-.3-1.7-.79-4.16-1.45-7.18-.65-3.02-1.54-6.6-2.63-10.53-1.12-3.93-2.46-8.22-4.06-12.66-1.61-4.43-3.32-8.59-4.97-12.33-1.68-3.73-3.28-7.04-4.71-9.78-1.42-2.74-2.62-4.95-3.47-6.45-.4-.72-.72-1.3-.96-1.74-.22-.4-.32-.62-.31-.63Z" style="fill:#263238;"></path><rect x="679.58" y="383.79" width="24.62" height="2.31" rx="1.05" ry="1.05" style="fill:#C53F3F;"></rect><path d="M712.23,409.78c-.82-9.01-7.92-10.24-9.28-11.2-.29-.2-.55-.47-.78-.75-.86-1.06-1.26-2.41-1.26-3.77v-9.11h-17.82v9.11c0,1.36-.41,2.71-1.26,3.77-.23,.28-.49,.55-.78,.75-1.37,.96-8.47,2.18-9.28,11.2-.82,9.01-3.82,29.49,1.5,36.05,4.91,6.04,9.7,6.4,17.68,6.42h0c.36,0,.71,0,1.06,0s.7,0,1.06,0h0c7.98-.02,12.78-.38,17.68-6.42,5.32-6.55,2.32-27.04,1.5-36.05Z" style="fill:#C53F3F;"></path><path d="M703.63,386.17c0,.15-5.26,.27-11.74,.27s-11.74-.12-11.74-.27,5.26-.27,11.74-.27,11.74,.12,11.74,.27Z" style="fill:#263238;"></path><path d="M717.91,311.6c-.8-2.04-2.94-3.35-5.12-3.64-2.18-.29-4.38,.29-6.42,1.11-1.79,.72-3.58,1.7-4.64,3.31-1.27,1.91-1.3,4.47-.46,6.61,.84,2.14,2.44,3.9,4.24,5.33,2.61-.44,5.26-2.03,7.52-3.41,1.63-.99,3.17-2.21,4.17-3.84,1-1.62,1.41-3.7,.71-5.47Z" style="fill:#455a64;"></path><path d="M660.43,356.34c-.95-1.44-.83-3.4-.04-4.94,.79-1.53,2.16-2.69,3.61-3.63,1.27-.83,2.71-1.54,4.22-1.5,1.8,.05,3.46,1.18,4.46,2.68,1,1.5,1.41,3.33,1.52,5.13-1.46,1.48-3.68,2.47-5.58,3.31-1.37,.6-2.85,1.04-4.35,.96-1.5-.08-3.01-.76-3.84-2.01Z" style="fill:#455a64;"></path><path d="M684.64,345.18c-.95-1.44-.83-3.4-.04-4.94,.79-1.53,2.16-2.69,3.61-3.63,1.27-.83,2.71-1.54,4.22-1.5,1.8,.05,3.46,1.18,4.46,2.68,1,1.5,1.41,3.33,1.52,5.13-1.46,1.48-3.68,2.47-5.58,3.31-1.37,.6-2.85,1.04-4.35,.96-1.5-.08-3.01-.76-3.84-2.01Z" style="fill:#455a64;"></path><path d="M716.63,343.44c1.15-1.32,1.29-3.31,.7-4.95-.59-1.65-1.81-2.99-3.14-4.13-1.17-1-2.51-1.91-4.04-2.07-1.82-.2-3.64,.72-4.84,2.1-1.2,1.38-1.86,3.16-2.21,4.95,1.27,1.68,3.36,2.98,5.17,4.07,1.3,.79,2.73,1.43,4.24,1.54,1.51,.12,3.13-.36,4.13-1.5Z" style="fill:#455a64;"></path><path d="M683.22,330.86c-.35-2.02-1.63-3.41-3.02-3.81-1.39-.41-2.87,.03-4.26,.7-1.22,.6-2.47,1.44-3.3,2.93-.99,1.78-1.22,4.25-.86,6.37,.36,2.12,1.26,3.91,2.3,5.4,1.73-.28,3.59-1.66,5.18-2.87,1.14-.87,2.25-1.96,3.04-3.47,.79-1.51,1.23-3.49,.93-5.25Z" style="fill:#455a64;"></path><path d="M693.99,318.11c-2.11-.29-4.01,.69-5.01,2.13-1,1.44-1.24,3.28-1.2,5.09,.04,1.6,.3,3.3,1.38,4.75,1.28,1.73,3.57,2.84,5.77,3.14,2.2,.31,4.33-.1,6.23-.78,.49-2.07-.03-4.65-.49-6.86-.33-1.59-.9-3.22-2.02-4.64-1.11-1.41-2.84-2.59-4.67-2.84Z" style="fill:#455a64;"></path><path d="M674.66,333.98c.08,.01-.03,1.02-.14,2.66-.12,1.63-.22,3.89-.1,6.38,.12,2.49,.46,4.72,.79,6.32,.33,1.6,.6,2.58,.52,2.61-.06,.02-.46-.92-.89-2.52-.43-1.6-.83-3.86-.96-6.38-.12-2.52,.04-4.81,.26-6.45,.22-1.64,.46-2.63,.52-2.62Z" style="fill:#263238;"></path><path d="M679.51,360.81c-.14,.06-1.05-1.92-2.86-3.87-.89-.97-1.81-1.75-2.52-2.23-.71-.5-1.21-.68-1.19-.76,.01-.06,.59,0,1.39,.44,.8,.42,1.8,1.18,2.72,2.19,1.88,2.02,2.6,4.2,2.46,4.23Z" style="fill:#263238;"></path><path d="M697.94,342.4c.13-.05,.75,1.57,.86,3.67,.12,2.11-.32,3.78-.45,3.75-.16-.03,.04-1.68-.09-3.72-.11-2.03-.48-3.66-.33-3.7Z" style="fill:#263238;"></path><path d="M704.27,337.6c.12,.08-.89,1.75-2.26,3.71-1.37,1.97-2.58,3.49-2.7,3.41-.12-.08,.89-1.75,2.26-3.71,1.37-1.97,2.58-3.49,2.7-3.41Z" style="fill:#263238;"></path><path d="M700.93,337.22c-.15,0-.2-1.45-.11-3.21,.09-1.77,.28-3.19,.42-3.19,.15,0,.2,1.45,.11,3.21-.09,1.77-.28,3.19-.42,3.19Z" style="fill:#263238;"></path></g></g><g id="freepik--Speech_Bubble_2--inject-169"><g><path d="M536.72,199.7l7.1-1.13c4.63,2.84,10.16,4.35,16.07,3.98,13.94-.88,25.12-12.44,25.57-26.4,.52-16.13-12.92-29.24-29.14-28.21-13.77,.88-24.87,12.18-25.53,25.96-.33,6.84,1.87,13.16,5.72,18.11h-.01l.23,7.69Z" style="fill:#fff;"></path><g><path d="M536.72,199.7s-.02-.15-.03-.48c-.02-.35-.04-.84-.07-1.46-.05-1.33-.13-3.26-.23-5.75,0-.06,.04-.11,.1-.11,.02,0,.05,0,.07,.02h.01l-.15,.16c-2.1-2.67-4.47-6.7-5.42-12.07-.48-2.67-.57-5.64-.15-8.75,.45-3.11,1.48-6.34,3.19-9.42,1.72-3.07,4.14-5.96,7.17-8.33,3.03-2.36,6.67-4.26,10.71-5.15,4.03-.92,8.39-.94,12.64,.05,4.26,.96,8.34,3.1,11.75,6.1,1.77,1.48,3.22,3.26,4.55,5.08,.6,.95,1.21,1.9,1.73,2.89l.72,1.51,.35,.75,.28,.78c1.55,4.13,2.03,8.52,1.61,12.67-.4,4.16-1.88,8.04-3.89,11.35-2.03,3.31-4.65,6.06-7.53,8.13-2.89,2.06-6.01,3.46-9.06,4.25-.77,.16-1.53,.32-2.28,.48-.75,.14-1.5,.18-2.23,.27-1.46,.16-2.88,.14-4.24,.05-5.45-.37-9.7-2.28-12.56-4.05h.07c-2.29,.35-4.07,.62-5.31,.8-.58,.08-1.03,.15-1.36,.19-.3,.04-.45,.06-.45,.05,0,0,.17-.04,.48-.1,.33-.06,.79-.14,1.37-.24,1.22-.21,2.97-.51,5.23-.89,.02,0,.05,0,.07,.01,2.86,1.72,7.08,3.57,12.47,3.89,1.34,.07,2.74,.09,4.19-.08,.72-.1,1.46-.14,2.2-.28,.74-.16,1.48-.32,2.24-.48,3.01-.8,6.07-2.19,8.91-4.23,2.82-2.05,5.4-4.76,7.38-8.02,1.97-3.26,3.41-7.06,3.8-11.15,.4-4.07-.07-8.38-1.6-12.43l-.27-.77-.35-.74-.7-1.48c-.51-.97-1.11-1.89-1.7-2.83-1.31-1.78-2.73-3.53-4.47-4.98-3.35-2.94-7.35-5.04-11.53-5.99-4.17-.98-8.46-.96-12.41-.06-3.97,.87-7.55,2.72-10.53,5.03-2.99,2.32-5.37,5.16-7.08,8.17-1.69,3.02-2.73,6.2-3.18,9.27-.43,3.07-.36,6,.1,8.64,.9,5.31,3.21,9.32,5.26,12,.04,.05,.03,.11-.02,.15-.04,.03-.09,.03-.13,0h-.01l.17-.1c.05,2.46,.08,4.37,.11,5.69,0,.64,.01,1.13,.02,1.49,0,.34,0,.52,0,.52Z" style="fill:#263238;"></path><path d="M558.26,203.02c-.61,0-1.26-.02-1.96-.06-5.56-.37-9.89-2.38-12.56-4.02l-6.54,.96c-.58,.08-.62,.09-.7-.07l-.16-.29,.11-.03c0-.07-.01-.16-.02-.27l-.29-7.04-.17-.13,.08-.05c-2.74-3.57-4.52-7.59-5.3-11.96-.51-2.82-.56-5.79-.15-8.83,.47-3.28,1.58-6.56,3.22-9.51,1.8-3.21,4.3-6.11,7.23-8.41,3.28-2.56,7.02-4.36,10.81-5.2,4.14-.95,8.55-.93,12.75,.05,4.28,.97,8.38,3.1,11.86,6.16,1.89,1.58,3.38,3.47,4.59,5.12l.25,.4c.51,.81,1.04,1.65,1.49,2.51l1.07,2.27,.29,.8c1.5,3.99,2.06,8.41,1.62,12.77-.37,3.88-1.73,7.84-3.93,11.45-1.96,3.2-4.58,6.03-7.6,8.2-2.76,1.97-5.92,3.45-9.14,4.29l-2.29,.48c-.5,.09-1,.14-1.48,.19-.26,.03-.52,.05-.77,.08-.73,.08-1.5,.12-2.33,.12Zm-13.39-4.25c3.58,1.98,7.44,3.11,11.49,3.35,1.6,.09,2.92,.06,4.14-.08,.25-.03,.51-.06,.77-.09,.46-.05,.94-.1,1.41-.19l2.24-.48c3.1-.83,6.15-2.27,8.81-4.19,2.9-2.11,5.43-4.85,7.31-7.95,2.11-3.49,3.41-7.31,3.76-11.05,.42-4.21-.13-8.47-1.58-12.32l-.27-.77-1.04-2.19c-.42-.81-.93-1.61-1.42-2.39l-.26-.41c-1.16-1.58-2.61-3.41-4.41-4.92-3.36-2.95-7.31-5.01-11.42-5.94-4.05-.95-8.31-.97-12.3-.06-3.65,.8-7.26,2.52-10.43,4.99-2.84,2.21-5.26,5.01-7.01,8.1-1.59,2.84-2.68,6.02-3.15,9.18-.41,2.94-.38,5.82,.1,8.56,.73,4.27,2.45,8.23,5.11,11.76l.15-.08v.21l.14,.08-.12,.11s0,.07-.01,.1l.12,7.07c0,.08,0,.15,0,.22,.05-.01,.11-.02,.18-.03l5.68-.98-.4-.25,.84,.17,.48-.08c.08-.02,.17,0,.24,.05,.16,.09,.32,.19,.47,.28l.8,.16-.41,.06Zm13.2-50.85c2.15,0,4.32,.25,6.43,.74,4.19,.95,8.22,3.04,11.64,6.05,1.84,1.54,3.31,3.4,4.5,5.02l.27,.43c.5,.79,1.01,1.6,1.45,2.44l1.06,2.23,.28,.79c1.4,3.71,1.97,7.79,1.67,11.86,.31-4.06-.26-8.15-1.66-11.87l-.28-.79-1.06-2.24c-.44-.83-.96-1.67-1.47-2.47l-.25-.39c-1.18-1.6-2.65-3.47-4.5-5.02-3.42-3.01-7.45-5.1-11.65-6.05-3.85-.9-7.86-.97-11.68-.23,1.72-.33,3.48-.5,5.24-.5Z" style="fill:#263238;"></path></g><circle cx="546.76" cy="175.23" r="3.48" style="fill:#263238;"></circle><circle cx="558.48" cy="175.23" r="3.48" style="fill:#263238;"></circle><path d="M573.68,175.23c0,1.92-1.56,3.48-3.48,3.48s-3.48-1.56-3.48-3.48,1.56-3.48,3.48-3.48,3.48,1.56,3.48,3.48Z" style="fill:#263238;"></path></g></g><g id="freepik--Speech_Bubble_1--inject-169"><g><path d="M262.37,169.37l-1.13-7.1c2.84-4.63,4.35-10.16,3.98-16.07-.88-13.94-12.44-25.12-26.4-25.57-16.13-.52-29.24,12.92-28.21,29.14,.88,13.77,12.18,24.87,25.96,25.53,6.84,.33,13.16-1.87,18.11-5.72h0l7.7-.21Z" style="fill:#fff;"></path><g><path d="M262.37,169.37s-.15,.02-.48,.03c-.35,.02-.84,.04-1.46,.07-1.33,.05-3.26,.13-5.75,.23-.06,0-.11-.04-.11-.1,0-.02,0-.05,.02-.07h0l.15,.14c-2.67,2.1-6.7,4.47-12.07,5.42-2.67,.48-5.64,.57-8.75,.15-3.11-.44-6.34-1.48-9.42-3.19-3.07-1.72-5.96-4.14-8.33-7.17-2.36-3.03-4.26-6.67-5.15-10.71-.92-4.03-.94-8.39,.05-12.64,.96-4.26,3.1-8.34,6.1-11.75,1.48-1.77,3.26-3.22,5.08-4.55,.95-.6,1.9-1.21,2.89-1.73l1.51-.72,.75-.35,.78-.28c4.13-1.55,8.52-2.03,12.67-1.61,4.16,.4,8.04,1.88,11.34,3.89,3.31,2.03,6.06,4.65,8.13,7.53,2.06,2.89,3.46,6.01,4.25,9.06,.16,.77,.32,1.53,.48,2.28,.14,.75,.18,1.5,.27,2.23,.16,1.46,.14,2.88,.05,4.24-.37,5.45-2.28,9.7-4.05,12.56v-.07c.35,2.29,.62,4.07,.8,5.31,.08,.58,.15,1.03,.19,1.36,.04,.3,.06,.45,.05,.45,0,0-.04-.17-.1-.48-.06-.33-.14-.79-.24-1.37-.21-1.22-.51-2.97-.89-5.23,0-.02,0-.05,.01-.07,1.72-2.86,3.57-7.08,3.89-12.47,.07-1.34,.09-2.74-.08-4.19-.1-.72-.14-1.46-.28-2.2-.16-.74-.32-1.48-.48-2.24-.8-3.01-2.19-6.07-4.23-8.91-2.05-2.82-4.76-5.4-8.02-7.38-3.26-1.97-7.06-3.41-11.15-3.8-4.07-.4-8.38,.07-12.43,1.6l-.77,.27-.74,.35-1.48,.7c-.97,.51-1.89,1.11-2.83,1.7-1.78,1.31-3.53,2.73-4.98,4.47-2.94,3.35-5.04,7.35-5.99,11.53-.98,4.17-.96,8.46-.06,12.41,.87,3.97,2.72,7.55,5.03,10.53,2.32,2.99,5.16,5.37,8.17,7.08,3.02,1.69,6.2,2.73,9.27,3.18,3.07,.43,6,.36,8.64-.1,5.31-.9,9.32-3.21,12-5.26,.05-.04,.11-.03,.15,.02,.03,.04,.03,.09,0,.13h0l-.09-.16c2.46-.05,4.37-.08,5.69-.11,.64,0,1.13-.01,1.49-.02,.34,0,.52,0,.52,0Z" style="fill:#263238;"></path><path d="M237.89,175.76c-1.32,0-2.65-.09-4-.27-3.27-.47-6.56-1.58-9.51-3.22-3.2-1.8-6.11-4.3-8.41-7.23-2.56-3.29-4.36-7.02-5.2-10.81-.95-4.14-.93-8.55,.05-12.75,.97-4.28,3.1-8.38,6.16-11.86,1.58-1.89,3.47-3.38,5.12-4.59l.41-.26c.81-.51,1.65-1.04,2.51-1.49l2.27-1.07,.8-.29c3.99-1.5,8.41-2.06,12.77-1.62,3.88,.37,7.84,1.73,11.45,3.93,3.2,1.96,6.03,4.58,8.2,7.6,1.97,2.76,3.45,5.92,4.29,9.14l.48,2.29c.09,.5,.14,1,.19,1.48,.03,.26,.05,.52,.08,.77,.14,1.28,.16,2.64,.06,4.29-.37,5.57-2.38,9.89-4.02,12.56l.96,6.54c.08,.58,.08,.61-.07,.7l-.29,.17-.03-.12c-.07,0-.16,.01-.27,.02l-1.46,.07-5.58,.22-.13,.18-.05-.09c-3.57,2.74-7.59,4.52-11.96,5.3-1.57,.28-3.18,.43-4.83,.43Zm.13-54.61c-3.3,0-6.56,.58-9.57,1.72l-.77,.27-2.19,1.04c-.81,.42-1.61,.93-2.38,1.42l-.42,.27c-1.58,1.16-3.41,2.61-4.92,4.41-2.95,3.36-5.01,7.31-5.94,11.42-.95,4.06-.97,8.31-.06,12.3,.8,3.65,2.52,7.26,4.99,10.43,2.21,2.84,5.01,5.26,8.1,7.01,2.84,1.59,6.02,2.68,9.18,3.15,2.94,.41,5.82,.38,8.56-.1,4.27-.73,8.23-2.45,11.77-5.11l-.08-.15h.22l.07-.1,.09,.08s.08,0,.12,0l7.07-.12c.08,0,.15,0,.22,0-.01-.05-.02-.11-.03-.18l-.98-5.68-.23,.37,.16-.8-.08-.49c-.01-.09,0-.17,.05-.24,.09-.15,.18-.31,.27-.46l.17-.85,.06,.44c1.98-3.58,3.11-7.44,3.35-11.49,.09-1.6,.06-2.92-.08-4.14-.03-.25-.06-.51-.09-.77-.05-.46-.1-.94-.19-1.4l-.48-2.24c-.83-3.1-2.27-6.15-4.19-8.81-2.11-2.9-4.86-5.43-7.95-7.31-3.49-2.11-7.31-3.41-11.05-3.76-.91-.09-1.83-.14-2.75-.14Zm-.05-.5c-3.34,0-6.65,.59-9.71,1.74l-.79,.28-2.24,1.06c-.83,.44-1.66,.96-2.46,1.46l-.4,.25c-1.6,1.18-3.47,2.65-5.02,4.5-3.01,3.43-5.1,7.45-6.05,11.65-.9,3.87-.97,7.91-.22,11.74-.75-3.83-.67-7.87,.23-11.73,.95-4.19,3.04-8.22,6.05-11.64,1.54-1.84,3.4-3.31,5.02-4.5l.44-.27c.78-.49,1.6-1.01,2.43-1.44l2.23-1.06,.79-.28c3.56-1.34,7.47-1.93,11.38-1.7-.56-.03-1.12-.05-1.68-.05Z" style="fill:#263238;"></path></g><circle cx="226.51" cy="147.97" r="3.48" style="fill:#263238;"></circle><circle cx="238.23" cy="147.97" r="3.48" style="fill:#263238;"></circle><circle cx="249.95" cy="147.97" r="3.48" style="fill:#263238;"></circle></g></g><g id="freepik--Lines--inject-169"><g><path d="M560.16,436.69c0,.14-10.29,.26-22.98,.26s-22.98-.12-22.98-.26,10.29-.26,22.98-.26,22.98,.12,22.98,.26Z" style="fill:#263238;"></path><path d="M561.17,430.98c0,.14-8.49,.26-18.96,.26s-18.97-.12-18.97-.26,8.49-.26,18.97-.26,18.96,.12,18.96,.26Z" style="fill:#263238;"></path></g></g><g id="freepik--Character--inject-169"><g><g><polygon points="620.02 452.17 613.33 414.24 591.53 414.24 606.14 452.24 620.02 452.17" style="fill:#ae7461;"></polygon><polygon points="206.4 451.84 218.95 402.97 240.75 402.97 220.27 451.9 206.4 451.84" style="fill:#ae7461;"></polygon><path d="M185.32,284.37s24.62-9.88,49.88-5.17c4.76,.89,1.95,49.66,1.95,49.66l-18.55,14.25-33.28-58.74" style="fill:#455a64;"></path><g style="opacity:.3;"><path d="M185.32,284.37s24.62-9.88,49.88-5.17c4.76,.89,1.95,49.66,1.95,49.66l-18.55,14.25-33.28-58.74"></path></g><path d="M212.41,395.9s-.04-39.47,0-40.24h199.76l2.1,40.32-201.86-.08Z" style="fill:#455a64;"></path><path d="M189.05,283.1h15.39c7.81,0,14.15,6.34,14.15,14.15v100.02c0,.92-.75,1.67-1.67,1.67h-27.88c-7.81,0-14.15-6.34-14.15-14.15v-87.54c0-7.81,6.34-14.15,14.15-14.15Z" style="fill:#455a64;"></path><path d="M417.39,328.86c.15-.88-1.43-5.22-15.36-4.76-10.67,.35-160.05-.71-167.34,5.88-18.52,16.74-22.12,11.6-24.11,27l206.8-1.32,.02-26.8Z" style="fill:#455a64;"></path><rect x="177.61" y="395.44" width="471.02" height="19.96" rx="6.46" ry="6.46" style="fill:#455a64;"></rect><path d="M587.22,328.86l2.51-63.78c.23-5.79-4.42-10.6-10.21-10.56l-167.32,.96v73.38h175.03Z" style="fill:#455a64;"></path><path d="M611.96,395.9s.05-39.47,0-40.24h-199.76l.93,39.87,198.84,.37Z" style="fill:#455a64;"></path><path d="M416.38,328.33c-.14-.88,1.16-4.69,14.35-4.23,10.1,.35,149.45-1.05,156.99,4.76,7.54,5.81,21.99,11.68,24.26,28.12l-195.78-1.32,.18-27.32Z" style="fill:#455a64;"></path><path d="M640.43,284.62s-23.25-10.13-50.98-5.42c-5.23,.89-2.14,49.66-2.14,49.66l21.79,17.21,31.34-61.46" style="fill:#455a64;"></path><g style="opacity:.3;"><path d="M640.43,284.62s-23.25-10.13-50.98-5.42c-5.23,.89-2.14,49.66-2.14,49.66l21.79,17.21,31.34-61.46"></path></g><path d="M619.93,283.1h29.55v101.69c0,7.81-6.34,14.15-14.15,14.15h-15.39c-7.81,0-14.15-6.34-14.15-14.15v-87.54c0-7.81,6.34-14.15,14.15-14.15Z" transform="translate(1255.25 682.05) rotate(180)" style="fill:#455a64;"></path><path d="M640.58,395.52c0,.18-101.6,.42-226.89,.55-125.34,.13-226.92,.08-226.92-.1,0-.18,101.57-.42,226.91-.55,125.3-.12,226.89-.08,226.89,.1Z" style="fill:#263238;"></path><path d="M417.72,255.45s.02,.12,.03,.36c0,.28,.02,.62,.03,1.06,.01,.98,.03,2.34,.06,4.08,.02,3.59,.06,8.7,.1,14.99,.02,12.7,.06,30.17,.09,49.46-.04,19.3-.07,36.77-.09,49.47-.04,6.29-.08,11.4-.1,14.99-.03,1.73-.05,3.1-.06,4.08-.01,.44-.02,.78-.03,1.06-.01,.24-.02,.36-.03,.36s-.02-.12-.03-.36c0-.28-.02-.62-.03-1.06-.01-.98-.03-2.34-.06-4.08-.02-3.59-.06-8.7-.1-14.99-.02-12.7-.06-30.17-.09-49.47,.04-19.3,.07-36.76,.09-49.46,.04-6.29,.08-11.4,.1-14.99,.03-1.73,.05-3.1,.06-4.08,.01-.44,.02-.78,.03-1.06,.01-.24,.02-.36,.03-.36Z" style="fill:#263238;"></path><path d="M237.15,328.86l-2.51-63.78c-.23-5.79,4.42-10.6,10.21-10.56l167.32,.96,.02,73.38H237.15Z" style="fill:#455a64;"></path><path d="M588.25,329.99s.68,.48,2.02,1.47c1.34,1,3.33,2.47,5.95,4.41,2.62,1.96,5.88,4.38,9.74,7.26,1.89,1.48,3.83,3.34,5.11,5.85,1.32,2.45,1.82,5.71,.56,8.7l-.03,.07h-.09c-64.57-.16-208.06-.53-374.52-.95-8.16-.03-16.27-.05-24.29-.07h-.29l-.03-.26c-.39-3.27,.82-6.38,2.54-8.96,.85-1.31,1.92-2.46,3.02-3.54,1.13-1.07,2.34-1.99,3.52-2.95,4.74-3.81,9.42-7.58,14.04-11.28l.08-.06h.11c99.86-1.23,188.01-1.25,251.18-.81,31.59,.2,56.93,.47,74.38,.7,8.72,.13,15.47,.22,20.05,.29,2.28,.04,4.01,.07,5.19,.09,1.17,.02,1.76,.05,1.76,.05-1.62-.01-38.31-.27-101.38-.7-63.17-.32-151.31-.22-251.18,1.02l.19-.07c-4.61,3.71-9.28,7.47-14.02,11.27-1.18,.95-2.4,1.89-3.49,2.92-1.07,1.06-2.11,2.17-2.93,3.44-.84,1.25-1.53,2.61-1.97,4.05-.44,1.43-.67,2.99-.47,4.42l-.32-.26c8.01,.02,16.12,.05,24.29,.07,166.46,.59,309.95,1.1,374.52,1.33l-.12,.07c1.22-2.86,.76-6.07-.53-8.47-1.25-2.47-3.15-4.32-5.02-5.8-3.83-2.89-7.07-5.33-9.67-7.3-2.6-1.97-4.58-3.46-5.91-4.47-1.33-1.01-2-1.54-2-1.54Z" style="fill:#263238;"></path><path d="M212.61,355.94c.18,0,.32,8.88,.32,19.83s-.14,19.84-.32,19.84-.32-8.88-.32-19.84,.14-19.83,.32-19.83Z" style="fill:#263238;"></path><path d="M611.51,356.98c.18,0,.32,8.61,.32,19.23s-.14,19.23-.32,19.23-.32-8.61-.32-19.23,.14-19.23,.32-19.23Z" style="fill:#263238;"></path></g><g><g><path d="M332.18,152.86c-.15-2.7-2.56-5.09-5.26-5.21,1.59-2.6,.26-6.36-2.43-7.79-2.69-1.43-6.21-.69-8.47,1.35-1.33-2.21-4.23-3.34-6.7-2.6-2.47,.73-4.29,3.26-4.2,5.84-2.47-.79-5.26,1.24-5.76,3.79-.49,2.55,.95,5.2,3.07,6.69-1.26,.95-1.13,3.03-.1,4.24,1.03,1.2,2.65,1.7,4.21,1.99l9.83,2.91c2.36,1.32,5.26,1.98,7.78,1.01,2.52-.97,4.33-3.94,3.38-6.47,2.67-.42,4.81-3.05,4.66-5.75Z" style="fill:#263238;"></path><path d="M332.09,151.75s-.1-.13-.34-.33c-.25-.19-.65-.45-1.23-.62-.58-.17-1.34-.27-2.2-.1-.85,.16-1.82,.61-2.53,1.5l.3,.09c-.07-1.19-.57-2.51-1.55-3.57-.96-1.06-2.33-1.92-3.94-2.27-1.61-.34-3.4-.12-5.05,.57-1.66,.68-3.19,1.78-4.47,3.18-.6,.67-1.13,1.45-1.38,2.34-.27,.88-.12,1.9,.4,2.64,.25,.38,.6,.69,1.02,.89,.42,.19,.91,.24,1.35,.12,.88-.24,1.51-.98,1.73-1.78,.22-.83-.02-1.68-.44-2.32-.42-.65-1.04-1.13-1.7-1.41-1.33-.56-2.69-.51-3.85-.31-2.35,.44-3.94,1.69-4.82,2.65-.45,.48-.73,.91-.91,1.2-.17,.3-.25,.46-.24,.47,.05,.03,.37-.63,1.28-1.54,.9-.89,2.47-2.06,4.74-2.44,1.11-.17,2.42-.19,3.62,.34,.6,.26,1.14,.69,1.5,1.27,.36,.57,.56,1.3,.37,1.97-.18,.66-.73,1.27-1.42,1.45-.69,.19-1.44-.18-1.86-.83-.43-.64-.56-1.47-.33-2.24,.22-.78,.7-1.5,1.28-2.14,2.43-2.69,5.99-4.27,9.07-3.64,1.51,.31,2.82,1.11,3.74,2.1,.94,.99,1.42,2.21,1.51,3.32l.04,.43,.26-.34c.63-.82,1.52-1.26,2.32-1.44,.81-.19,1.54-.12,2.1,.02,1.14,.3,1.59,.83,1.63,.78Z" style="fill:#455a64;"></path><path d="M322.97,161.89s.02,.09,.1,.25c.09,.15,.24,.37,.51,.59,.27,.21,.65,.43,1.14,.52,.49,.09,1.11,.06,1.67-.29l.9-.55-1.01,.3c-.34,.1-.69,.21-1.06,.32l-1.32,.4,1.38-.1c.82-.06,1.73-.58,2.18-1.5,.45-.91,.32-2.19-.51-3.04l-.31,.26c1.03,1.53,3.06,2.55,5.22,2.38,2.18-.12,4.24-1.83,4.96-4.07,.5-1.51,.42-3.21-.39-4.53-.77-1.35-2.64-1.98-3.93-1.14l.27,.36c.86-.73,1.29-1.79,1.37-2.79,.09-1.01-.15-1.98-.63-2.75-.48-.77-1.21-1.32-1.96-1.55-.75-.24-1.49-.25-2.13-.12-1.29,.25-2.12,.96-2.54,1.5-.42,.56-.5,.94-.5,.94,.04,.02,.17-.34,.61-.84,.44-.49,1.26-1.13,2.48-1.32,.6-.1,1.29-.07,1.97,.17,.69,.23,1.32,.73,1.75,1.44,.42,.71,.62,1.6,.53,2.52-.08,.91-.5,1.85-1.25,2.48l.27,.36c1.02-.66,2.61-.17,3.28,1.02,.72,1.17,.8,2.74,.34,4.12-.67,2.08-2.55,3.64-4.54,3.76-1.98,.18-3.88-.76-4.84-2.15l-.31,.26c.71,.7,.85,1.82,.48,2.6-.37,.8-1.16,1.28-1.88,1.35l.06,.29c.37-.12,.72-.24,1.05-.35l-.11-.24c-.49,.32-1.04,.37-1.5,.31-.46-.06-.82-.24-1.09-.43-.53-.38-.66-.74-.69-.72Z" style="fill:#263238;"></path><path d="M295.09,156.11s-.38-.39-.83-1.22c-.44-.81-.91-2.19-.58-3.84,.29-1.62,1.68-3.39,3.8-4,.52-.15,1.08-.22,1.64-.2,.55,.02,1.13,.19,1.42,.61,.32,.42,.24,1.04-.26,1.22-.49,.2-1.13,.1-1.7-.14-1.16-.45-2.11-1.36-2.55-2.44-.47-1.08-.28-2.29,.24-3.23,1.06-1.94,3.18-2.76,4.81-2.74,1.68,0,2.93,.74,3.65,1.33,.73,.6,1.01,1.07,1.05,1.04,.01,0-.05-.13-.19-.34-.14-.21-.38-.51-.74-.84-.7-.64-1.98-1.48-3.77-1.53-.88-.02-1.86,.16-2.8,.62-.93,.46-1.83,1.21-2.4,2.25-.58,1.02-.81,2.4-.29,3.62,.49,1.21,1.53,2.21,2.81,2.71,.62,.24,1.36,.41,2.07,.13,.35-.14,.66-.48,.72-.88,.07-.39-.06-.77-.26-1.06-.45-.61-1.18-.77-1.79-.8-.62-.02-1.23,.06-1.79,.23-2.28,.69-3.74,2.62-4.01,4.37-.31,1.76,.25,3.18,.75,4,.25,.42,.51,.7,.69,.88,.19,.17,.29,.26,.3,.24Z" style="fill:#263238;"></path><path d="M324.63,163.97c-1.11-2.12-4.16-2.39-6.36-1.45,.2-1.64-.63-3.35-2.03-4.21-1.41-.86-3.31-.82-4.68,.1-.53,.35-1.04,.85-1.68,.81-.66-.04-1.12-.65-1.6-1.11-1.73-1.65-4.85-1.47-6.38,.36-1.53,1.83-1.15,4.93,.78,6.34l.3-1.17c3.67,3.5,8.44,5.82,13.45,6.55,2.11,.3,4.38,.3,6.21-.78,1.83-1.08,2.97-3.55,1.98-5.43Z" style="fill:#C53F3F;"></path><path d="M330.03,182.67c1.83-2.69,1.68-6.58-.36-9.12-.79-.99-1.84-1.73-3.01-2.21-.19-2.03-.82-3.99-2.16-5.49-1.95-2.2-5.71-2.91-7.86-.91-1.6-3.51-6.5-5.01-9.8-3-2.83-3.31-8.79-3.1-11.38,.41-1.69-1.15-4.07-1.19-5.8-.1-1.73,1.1-2.71,3.26-2.39,5.29-1.99-.33-4.14,.48-5.41,2.04-1.28,1.57-1.64,3.83-.92,5.71-1.69,.1-3.26,1.29-3.8,2.9-.54,1.6-.02,3.51,1.27,4.61-2.2,2.52-1.54,6.96,1.29,8.73-.58,2.4,1,5.12,3.37,5.8l35.24,10.48c5.92-.42,7.52-4.27,7.77-7.85,1.41-.5,2.61-1.6,3.19-2.99,.64-1.49,.55-3.28-.22-4.7,1.58-.97,2.67-2.71,2.86-4.56,.19-1.85-.53-3.77-1.88-5.04Z" style="fill:#263238;"></path><path d="M316.26,174.72l-21.62-4.8c-6.89-.53-11.22,8.07-11.45,14.98-.26,7.68-.27,17.06,.8,22.75,2.16,11.45,11.02,12.65,11.02,12.65,0-.04,.03,.17,.2,3.58l.16,5.54c.06,2.24,.81,4.45,2.29,6.12,3.4,3.83,9.14,3.98,15.68,1.04,3.79-1.71,3.56-3.86,4.02-9.16l3.07-50.05c-.46-.77-2.08-2.51-4.18-2.67Z" style="fill:#ffbf9d;"></path><path d="M288.79,195.52c0,.78,.65,1.43,1.47,1.45,.81,.02,1.48-.59,1.48-1.37,0-.78-.65-1.43-1.46-1.45-.81-.02-1.48,.6-1.48,1.38Z" style="fill:#263238;"></path><path d="M285.89,190.8c.19,.19,1.28-.67,2.87-.71,1.58-.06,2.77,.72,2.94,.52,.08-.09-.11-.43-.63-.78-.51-.35-1.37-.69-2.36-.65-.99,.03-1.81,.42-2.28,.81-.48,.39-.63,.74-.54,.82Z" style="fill:#263238;"></path><path d="M302.96,194.92c0,.78,.65,1.43,1.47,1.45,.81,.02,1.48-.59,1.48-1.37,0-.78-.65-1.43-1.46-1.45-.81-.02-1.48,.6-1.48,1.37Z" style="fill:#263238;"></path><path d="M300.89,190.8c.19,.19,1.28-.67,2.87-.71,1.58-.07,2.77,.72,2.94,.52,.08-.09-.11-.43-.63-.78-.51-.35-1.37-.69-2.36-.65-.99,.03-1.81,.42-2.28,.81-.48,.39-.63,.74-.54,.82Z" style="fill:#263238;"></path><path d="M296.41,201.44c0-.09-.99-.23-2.59-.39-.41-.03-.79-.1-.87-.37-.1-.29,.05-.73,.24-1.21,.35-.99,.72-2.03,1.11-3.12,1.54-4.44,2.63-8.09,2.46-8.15-.18-.06-1.57,3.49-3.11,7.93-.37,1.09-.72,2.14-1.06,3.14-.14,.47-.39,1-.16,1.6,.12,.3,.42,.51,.68,.57,.26,.07,.49,.07,.69,.08,1.61,.04,2.61,.02,2.61-.07Z" style="fill:#263238;"></path><path d="M294.97,220.32s7.75,.27,15.28-4.56c0,0-3.57,8.16-15.11,7.42l-.17-2.86Z" style="fill:#ff9a6c;"></path><path d="M301.78,204.6c-.43-.65-1.18-.98-1.94-.99-1.1,0-2,.4-2.69,1.43-.23,.3-.19,1.12-.08,1.35,.11,.22,.03,.12,.21,.27,.66,.55,1.35,1.09,2.18,1.26,.83,.17,1.83-.12,2.35-.94,.46-.73,.41-1.73-.02-2.38Z" style="fill:#ff9a6c;"></path><path d="M301.4,202.45c-.26,0-.22,1.71-1.67,2.97-1.44,1.26-3.28,1.11-3.29,1.35-.02,.11,.42,.33,1.19,.33,.76,0,1.87-.26,2.75-1.03,.88-.77,1.25-1.78,1.29-2.49,.05-.72-.15-1.14-.27-1.13Z" style="fill:#263238;"></path><path d="M300.66,183.88c.14,.44,1.73,.28,3.59,.55,1.86,.24,3.35,.83,3.61,.45,.12-.18-.13-.6-.73-1.03-.59-.43-1.54-.86-2.65-1.01-1.11-.15-2.14,0-2.83,.25-.69,.26-1.05,.59-.98,.79Z" style="fill:#263238;"></path><path d="M286.2,185.14c.33,.34,1.53-.1,3-.19,1.46-.14,2.72,.09,2.99-.3,.12-.19-.1-.54-.66-.85-.55-.31-1.46-.54-2.47-.46-1.01,.08-1.86,.46-2.35,.85-.5,.4-.65,.78-.5,.95Z" style="fill:#263238;"></path><path d="M294.48,168.7c-.01,.08-.02,.17-.04,.25h.04v-.25Z" style="fill:#263238;"></path><path d="M317.38,195.24c-.05-.74,.46-1.41,1.18-1.56,1.86-.39,5.15-.4,5.48,4.27,.45,6.46-6.13,5.58-6.16,5.4-.02-.14-.35-5.64-.51-8.11Z" style="fill:#ffbf9d;"></path><path d="M319.69,200.76s.12,.07,.31,.14c.19,.07,.51,.11,.84-.04,.67-.3,1.16-1.42,1.11-2.59-.02-.59-.19-1.14-.43-1.59-.23-.46-.56-.77-.91-.81-.35-.06-.58,.17-.64,.36-.07,.19-.02,.31-.06,.33-.02,.02-.15-.1-.11-.37,.02-.13,.08-.29,.23-.42,.15-.14,.37-.22,.61-.21,.5,0,.98,.43,1.25,.92,.29,.49,.49,1.11,.52,1.77,.05,1.31-.53,2.57-1.45,2.91-.45,.15-.84,.04-1.04-.1-.21-.15-.26-.29-.23-.3Z" style="fill:#ff9a6c;"></path><path d="M280.91,188.73c1.2,.03,2.41-.52,3.17-1.45,.77-.93,1.09-2.21,.84-3.39,1.3,.03,2.59-.59,3.39-1.61,.8-1.03,1.07-2.43,.73-3.69,1.4,.69,3.11,.7,4.52,.03,1.41-.67,2.48-2.01,2.83-3.53,0,.52,.36,1,.82,1.25,.46,.25,1,.31,1.52,.27,1.72-.12,3.33-1.25,4.02-2.83,1.04,1.75,3.46,2.53,5.33,1.71,.68-.3,1.35-.94,1.23-1.68-.04-.27-.19-.51-.34-.74-1.96-2.97-5.53-4.61-9.08-4.92-3.55-.31-7.1,.55-10.47,1.69-1.98,.67-3.99,1.48-5.48,2.96-1.6,1.59-2.42,3.78-3.19,5.9-.56,1.54-1.13,3.1-1.39,4.72-.26,1.62-.18,3.34,.49,4.83l.45,.04" style="fill:#263238;"></path><path d="M308.09,173.69c.02,2.77,2.27,5.36,5.01,5.78-1.4,.53-2.24,2.21-1.83,3.65,.41,1.44,2.02,2.42,3.49,2.13-.39,.94-.78,1.92-.75,2.93s.59,2.09,1.57,2.39c-.47,.62-1.04,1.54-.74,2.54,.22,.74,.85,1.84,2.35,1.84,.96,0,1.72-1.17,2.67-1.35,1.41-.27,2.94,.2,3.96,1.2l1.19-12.06-1.46-9.66-5.64-4.13-10.88,1.94,1.07,2.79Z" style="fill:#263238;"></path><path d="M326.19,174.02c0-.05-.43,.05-1.14-.13-.68-.17-1.72-.72-2.16-1.9l-.27-.72-.11,.76c-.12,.82-.58,1.73-1.39,2.36-.79,.65-1.95,.91-3.06,.61-.71-.18-1.34-.57-1.79-1.09l-.21-.24-.17,.27c-.62,.98-1.56,1.64-2.47,1.98-.92,.35-1.83,.35-2.55,.23-1.46-.27-2.17-.92-2.21-.85-.02,.02,.14,.19,.49,.44,.35,.24,.9,.54,1.67,.71,.76,.17,1.74,.21,2.75-.14,1.01-.34,2.03-1.04,2.73-2.11l-.38,.03c.51,.59,1.23,1.04,2.03,1.25,1.24,.34,2.59,.02,3.47-.72,.9-.72,1.39-1.75,1.49-2.68l-.37,.04c.55,1.34,1.74,1.86,2.48,1.98,.78,.12,1.2-.07,1.19-.09Z" style="fill:#455a64;"></path><path d="M309.25,161.37c-.04,.09,1.02,.35,2.4,1.31,.67,.49,1.38,1.21,1.77,2.22,.4,.98,.32,2.29-.5,3.2-.27,.3-.6,.52-.94,.65l-.28,.11,.16,.25c.58,.89,.43,2.03,.05,2.86-.39,.85-1.03,1.45-1.58,1.9-1.14,.88-1.93,1.31-1.89,1.38,.02,.03,.22-.06,.59-.24,.36-.18,.89-.46,1.5-.89,.6-.43,1.31-1.04,1.77-1.98,.44-.9,.67-2.2-.03-3.31l-.12,.36c.42-.15,.83-.42,1.14-.78,.97-1.06,1.03-2.61,.56-3.69-.45-1.11-1.26-1.87-1.99-2.34-.74-.48-1.4-.73-1.86-.87-.46-.15-.72-.19-.73-.16Z" style="fill:#455a64;"></path><path d="M274.16,199.97s.07,.06,.23,.12c.16,.06,.4,.13,.72,.16,.63,.07,1.63-.04,2.58-.76,.96-.68,1.61-2.2,1.19-3.74-.19-.76-.64-1.51-1.36-2.01-.35-.25-.79-.44-1.28-.44-.48,0-.98,.2-1.3,.62-.32,.43-.31,1.03-.08,1.45,.21,.43,.55,.75,.93,.98,.78,.43,1.65,.48,2.42,.32,.77-.17,1.43-.55,1.94-1.02,.51-.48,.83-1.05,1.04-1.59,.4-1.1,.35-2.06,.25-2.68-.11-.63-.26-.95-.29-.94-.04,.01,.05,.35,.1,.96,.04,.61,.03,1.53-.38,2.53-.21,.49-.53,1-.99,1.42-.47,.41-1.07,.74-1.76,.88-.68,.14-1.45,.07-2.08-.29-.61-.34-1.12-1.17-.69-1.73,.2-.27,.56-.43,.9-.43,.35,0,.7,.14,1.01,.35,.61,.42,1.02,1.07,1.2,1.74,.39,1.36-.13,2.7-.97,3.35-.83,.68-1.75,.85-2.35,.83-.61,0-.94-.14-.95-.1Z" style="fill:#263238;"></path><path d="M325.03,191.84s.26,.22,.83,.45c.57,.23,1.45,.44,2.55,.44,1.1-.02,2.4-.14,3.78-.7,.68-.3,1.37-.85,1.65-1.68,.14-.41,.17-.88-.02-1.33-.19-.43-.54-.78-1-.95-.27-.1-.58-.11-.85-.03l.17,.45c1.55-.76,2.25-2.46,2.11-3.86-.05-.71-.35-1.36-.74-1.85-.41-.49-.9-.82-1.38-1.04-.97-.43-1.86-.39-2.41-.25-.56,.15-.82,.35-.81,.37,.02,.04,.3-.1,.84-.19,.53-.08,1.36-.06,2.24,.37,.86,.41,1.76,1.34,1.83,2.62,.1,1.24-.56,2.75-1.88,3.39l.17,.45c.17-.05,.36-.05,.55,.02,.32,.11,.59,.38,.72,.68,.13,.3,.12,.67,.01,.99-.22,.67-.78,1.15-1.39,1.43-1.25,.54-2.56,.71-3.6,.77-2.14,.08-3.35-.63-3.38-.54Z" style="fill:#263238;"></path></g><g><path d="M286.05,388.18s-9.75,18.48-9.75,18.48l-14.48-8.07,6.37-20.13,17.87,9.72Z" style="fill:#ffbf9d;"></path><g><path d="M277.03,404.15s-14.89,.46-15.22-9.15l-.8,1.93-22.24,14.62c-3.54,2.52-3.26,5.4-2.32,6.87,.72,1.14,1.99,1.73,3.29,1.57,6.92-.88,32.35-4.26,33.63-6.31l1.32-1.79c2.12-2.51,2.82-5.59,2.11-6.71l.23-1.04Z" style="fill:#263238;"></path><g style="opacity:.6;"><path d="M236.83,418.93l37.86-7.03-.83,1.12c-.79,1.3-1.68,1.39-2.83,1.75-3.42,1.06-11.98,2.75-31.21,5.29-1.12,.15-2.24-.28-2.98-1.13h0Z" style="fill:#fff;"></path></g><g style="opacity:.6;"><path d="M272.04,407.09c-1-.03-1.96,.81-2.04,1.81-.07,1,.78,1.99,1.78,2.04,1,.05,2.19-.93,2.15-1.93-.04-1-1.1-2.11-2.09-1.91" style="fill:#fff;"></path></g><path d="M254.51,410.06c-.2-.04,.23-1.87-.8-3.78-.97-1.94-2.71-2.66-2.62-2.84,.02-.08,.51-.04,1.2,.33,.68,.36,1.51,1.12,2.07,2.18,.55,1.07,.68,2.18,.58,2.95-.09,.77-.34,1.2-.42,1.17Z" style="fill:#fff;"></path><path d="M250.29,411.65c-.21,.02-.42-1.47-1.5-2.88-1.05-1.43-2.42-2.05-2.34-2.25,.02-.19,1.72,.19,2.92,1.82,1.22,1.61,1.11,3.34,.92,3.31Z" style="fill:#fff;"></path><path d="M259.3,408.31c-.19,.03-.46-1.96-1.75-3.99-1.26-2.05-2.93-3.16-2.82-3.32,.05-.15,2,.8,3.35,2.99,1.38,2.18,1.38,4.34,1.22,4.32Z" style="fill:#fff;"></path><path d="M258.78,402.43s.24-.39,.88-.89c.63-.49,1.65-1.13,3.06-1.51,.69-.16,1.52-.43,2.47-.05,.47,.18,.88,.74,.83,1.32-.05,.57-.36,1.03-.73,1.4-1.55,1.41-4.26,1.48-6.09-.04-1.8-1.55-2.28-4.04-1.6-5.95,.2-.47,.52-.97,1.11-1.16,.58-.2,1.2,.14,1.47,.54,.56,.82,.57,1.65,.66,2.36,.11,1.45-.11,2.62-.33,3.39-.22,.77-.45,1.16-.49,1.15-.14-.03,.61-1.72,.31-4.49-.1-.67-.19-1.48-.63-2.04-.21-.27-.51-.4-.8-.3-.28,.09-.54,.42-.68,.8-.54,1.59-.1,3.86,1.45,5.15,1.53,1.29,3.91,1.23,5.17,.11,.3-.27,.52-.63,.55-.95,.03-.32-.15-.6-.44-.74-.63-.29-1.43-.13-2.09,0-2.72,.64-3.99,2.03-4.07,1.9Z" style="fill:#fff;"></path></g></g><g><path d="M316.55,412.46c-.07,0-.18,22.77-.18,22.77,0,0-15.78,2.48-15.78,2.07s-4.66-22.16-4.66-22.16l20.62-2.69Z" style="fill:#ffbf9d;"></path><g><path d="M299.31,430.98s11.48,8.64,17.1,.85l.22,2.08,10.33,24.54c1.54,4.06-.3,6.3-1.9,7-1.23,.54-2.62,.33-3.6-.53-5.25-4.59-24.49-21.56-24.42-23.97l-.1-2.22c-.36-3.27,.77-6.21,1.99-6.75l.39-.99Z" style="fill:#263238;"></path><g style="opacity:.6;"><path d="M324.46,465.65l-27.53-26.93,.07,1.4c-.07,1.52,.62,2.09,1.38,3.03,2.25,2.78,8.42,8.96,22.98,21.78,.85,.75,2.02,1.02,3.11,.73h0Z" style="fill:#fff;"></path></g><g style="opacity:.6;"><path d="M301.82,436.2c.85,.53,1.18,1.77,.68,2.64-.5,.87-1.75,1.22-2.61,.7-.86-.52-1.3-1.99-.71-2.8,.59-.81,2.09-1.14,2.8-.43" style="fill:#fff;"></path></g><path d="M314.72,448.43c.19,.08,.85-1.68,2.77-2.7,1.89-1.08,3.73-.7,3.76-.9,.02-.08-.4-.32-1.18-.39-.77-.08-1.88,.08-2.93,.66-1.05,.58-1.78,1.43-2.12,2.12-.35,.69-.38,1.18-.3,1.21Z" style="fill:#fff;"></path><path d="M317.34,452.1c.16,.14,1.17-.99,2.85-1.55,1.67-.6,3.15-.36,3.2-.57,.09-.17-1.53-.8-3.44-.12-1.91,.66-2.79,2.16-2.61,2.24Z" style="fill:#fff;"></path><path d="M311.72,444.31c.14,.13,1.48-1.37,3.68-2.34,2.19-1,4.2-1,4.19-1.19,.04-.15-2.1-.45-4.45,.61-2.36,1.04-3.56,2.84-3.42,2.91Z" style="fill:#fff;"></path><path d="M315.43,439.72s.01-.46-.24-1.23c-.25-.76-.74-1.85-1.7-2.96-.49-.52-1.02-1.2-2.02-1.42-.5-.11-1.14,.13-1.42,.64-.28,.5-.28,1.06-.17,1.57,.51,2.03,2.71,3.6,5.08,3.36,2.36-.28,4.14-2.08,4.65-4.05,.09-.5,.1-1.09-.27-1.58-.37-.49-1.08-.56-1.52-.37-.92,.36-1.4,1.05-1.86,1.59-.9,1.15-1.37,2.24-1.61,3-.25,.77-.28,1.22-.24,1.23,.13,.06,.45-1.77,2.25-3.9,.46-.5,.98-1.12,1.66-1.35,.33-.11,.65-.04,.83,.2,.18,.23,.21,.65,.12,1.05-.44,1.62-2.07,3.26-4.07,3.47-1.99,.22-3.93-1.16-4.35-2.79-.1-.39-.08-.82,.07-1.1,.15-.28,.46-.42,.78-.36,.68,.11,1.26,.68,1.73,1.17,1.9,2.05,2.19,3.9,2.32,3.84Z" style="fill:#fff;"></path></g></g><g><path d="M331.97,300.51s14.08,16.5,13.74,29.82c-.33,13.33-6.28,22.95-6.28,22.95l-18.66,1.1s-1.66-8.9-8.33-8.9c-1.45,0-25.78,46.61-25.78,46.61l-23.84-10.9s15.68-41.18,19.51-50.86,7.43-14.35,12.55-15.73l5.71-14.45,31.37,.36Z" style="fill:#263238;"></path><path d="M328.03,316.46c.02,.08,.88-.16,2.29-.27,1.4-.12,3.39-.04,5.43,.64,2.05,.66,3.64,1.85,4.64,2.84,.99,1,1.46,1.76,1.54,1.71,.03-.02-.07-.22-.27-.57-.19-.36-.54-.83-1.02-1.38-.96-1.08-2.6-2.37-4.74-3.06-2.12-.71-4.19-.73-5.61-.52-1.44,.2-2.27,.56-2.26,.61Z" style="fill:#455a64;"></path><path d="M305.21,312.99c.13,0,.24-2.86,.24-6.39s-.11-6.39-.24-6.39-.24,2.86-.24,6.39,.11,6.39,.24,6.39Z" style="fill:#455a64;"></path><path d="M321.65,300.15s.05,.28,.25,.75c.2,.47,.53,1.12,1.03,1.88,.98,1.51,2.75,3.41,5.22,4.71,2.48,1.3,5.04,1.67,6.85,1.61,.91-.02,1.63-.12,2.13-.22,.49-.1,.76-.19,.75-.22-.01-.09-1.11,.15-2.88,.1-1.76-.04-4.23-.45-6.62-1.7-2.39-1.25-4.13-3.05-5.17-4.48-1.05-1.43-1.48-2.46-1.56-2.43Z" style="fill:#455a64;"></path><path d="M272.44,299.79s-7.68,7.63-9.61,19.18c-1.93,11.55-2.05,26.62,1.24,32.2l9.41,2.12,8.29,8.4,11.74,63.9,26.65-3.66s2.49-55.52,1.64-60.81c-.86-5.29-1.02-6.73-1.02-6.73,0,0,.59-8.71-5.7-15-6.29-6.29-15.3-12.87-15.3-12.87l.82-26.37-28.17-.36Z" style="fill:#263238;"></path><path d="M266.62,308.86s.3,.16,.87,.37c.58,.18,1.43,.43,2.51,.56,2.13,.29,5.3,.22,8.31-1.35,.74-.39,1.42-.88,2.01-1.39,.6-.5,1.16-1.01,1.68-1.5,1.03-1,1.89-1.97,2.58-2.8,.69-.83,1.23-1.52,1.59-2,.36-.48,.55-.76,.52-.78-.06-.05-.93,.96-2.37,2.56-.72,.8-1.59,1.73-2.63,2.7-1.05,.94-2.2,2.04-3.61,2.79-2.88,1.5-5.95,1.63-8.05,1.44-2.13-.19-3.39-.68-3.42-.59Z" style="fill:#455a64;"></path><path d="M320.77,354.38s-.04-.31-.14-.9c-.05-.3-.11-.67-.26-1.1-.13-.43-.27-.93-.54-1.46-.48-1.07-1.28-2.36-2.65-3.44-1.35-1.08-3.22-1.98-5.48-2.22h-.07l-.04,.06c-5.52,10.24-14.41,26.76-25.12,46.65l.29-.1c-7.4-3.39-15.45-7.08-23.83-10.91l.12,.31c1.22-3.11,2.51-6.4,3.82-9.74,4.52-11.53,8.85-22.6,12.85-32.81,2-5.11,3.91-10.01,5.72-14.65,.85-2.32,2.2-4.36,3.9-5.93,1.7-1.56,3.74-2.68,5.81-3.19h.02c5.65-1.64,11.05-2.1,15.74-1.88,4.7,.18,8.71,1.05,11.9,1.97,3.19,.94,5.58,1.98,7.18,2.72,.8,.37,1.39,.7,1.8,.89,.41,.2,.62,.29,.62,.29,0,0-.2-.12-.59-.34-.4-.21-.98-.55-1.78-.94-1.59-.77-3.97-1.85-7.17-2.83-3.2-.95-7.22-1.86-11.95-2.07-4.72-.25-10.15,.19-15.86,1.81h.02c-2.18,.53-4.25,1.66-6.01,3.26-1.76,1.6-3.16,3.71-4.03,6.07-1.82,4.64-3.75,9.53-5.76,14.63-4.01,10.21-8.35,21.27-12.88,32.8-1.31,3.33-2.6,6.63-3.82,9.74l-.08,.21,.21,.1c8.38,3.83,16.43,7.5,23.84,10.88l.19,.09,.1-.19c10.63-19.94,19.46-36.49,24.93-46.75l-.11,.06c2.19,.21,4.05,1.08,5.37,2.13,1.35,1.04,2.16,2.29,2.65,3.34,.28,.52,.42,1.01,.56,1.43,.16,.42,.23,.79,.29,1.08,.13,.59,.21,.89,.21,.89Z" style="fill:#455a64;"></path><path d="M266.62,319.89c.05,.08,1.08-.65,2.91-1.43,.91-.4,2.05-.77,3.33-1.07,1.29-.27,2.73-.47,4.25-.48,1.52,0,2.96,.17,4.25,.43,1.28,.29,2.42,.64,3.34,1.03,1.85,.76,2.88,1.48,2.93,1.4,.02-.03-.23-.22-.69-.54-.23-.17-.52-.36-.88-.54-.36-.19-.75-.43-1.22-.62-.92-.44-2.07-.83-3.38-1.15-1.32-.29-2.79-.48-4.35-.48-1.56,.02-3.03,.23-4.34,.53-1.31,.33-2.45,.74-3.37,1.19-.47,.2-.86,.44-1.21,.64-.36,.19-.64,.39-.87,.56-.46,.33-.71,.52-.69,.55Z" style="fill:#455a64;"></path><g style="opacity:.3;"><path d="M311.69,345.39s-7.05,30.14-14.75,38.58c-7.7,8.44-9.75,10.21-9.75,10.21l-.53-2.09,25.03-46.7Z"></path></g></g><g><path d="M280.6,278.41c-.29,.44-10.7,14.41-10.7,14.41l-12.59-11.69,8.06-20.3,4.83-8.28,10.39,25.85Z" style="fill:#ffbf9d;"></path><g><path d="M337.22,232.28l-19.68-7.57s-4.96,8.57-13.7,7.82c-8.94-.77-8.66-7.29-8.66-7.29l-24.73,7.02s-1.63,33.44,0,38.67c1.63,5.23,6.27,12.02,6.27,12.02,0,0-4.89,11.36-5.01,14.5s1.25,2.35,1.25,2.35l59.67,.72,4.6-68.23Z" style="fill:#C53F3F;"></path><g style="opacity:.3;"><path d="M284.73,266.54c.76-.69,1.97-.23,2.87,.26,5.14,2.78,10.29,5.56,15.17,8.78,6.15,4.06,11.84,8.79,17.87,13.04,3.55,2.5,7.22,4.84,10.99,7l1.28,2.23c-1.36,2.21-4.17,3.21-6.75,3-2.58-.2-4.98-1.42-7.17-2.8-10.13-6.41-17.26-16.79-27.39-23.2-2.51-1.59-5.29-3.03-6.81-5.58-.51-.85-.79-2.07-.06-2.74Z"></path></g><path d="M282.42,282.38c0,.07,.94,.09,2.46,.13,1.52,.04,3.61,.12,5.91,.29,2.31,.17,4.39,.41,5.89,.6,1.51,.19,2.44,.31,2.45,.24,.01-.06-.9-.3-2.4-.58-1.5-.27-3.59-.57-5.91-.74-2.32-.17-4.43-.19-5.95-.15-1.52,.05-2.46,.15-2.46,.21Z" style="fill:#263238;"></path></g><g><path d="M346.17,272.78s-5.51,15.55-7.95,19.51c-2.44,3.96-3.48,9.07-11.3,6.99-7.82-2.09-11.79-7.18-20.34-14.2-8.55-7.01-14.07-12.3-14.07-12.3l6.02-7.29,24.95,11.37,5.94-13.04,16.75,8.96Z" style="fill:#ffbf9d;"></path><path d="M270.73,249.44l17.15,9.04,14.03,8.94s-6.97,6.17-8.93,6.02c-1.96-.15-4.63-2.87-4.63-2.87,0,0-.3,.81-1.16,1.11-.86,.3-1.86-.71-1.86-.71,0,0-1.01,.4-1.86,.4s-1.85-3.28-2.36-5.45c-.5-2.17,.34-3.21,.34-3.21l-.67-.39-.95,1.65,1.46,5.23c.78,2.87-2,2.48-2,2.48,0,0-3.05-5.31-3.36-8.32-.31-3.01,2.7-4.94,2.7-4.94,0,0-6.34-5.46-7.9-6.49s0-2.49,0-2.49Z" style="fill:#ffbf9d;"></path><path d="M325.54,288.28c.05,.02,.35-.61,.56-1.72,.21-1.1,.28-2.68-.07-4.37-.36-1.69-1.07-3.1-1.71-4.02-.64-.92-1.17-1.38-1.21-1.34-.13,.08,1.78,2.17,2.45,5.46,.73,3.27-.17,5.96-.01,5.98Z" style="fill:#ff9a6c;"></path><path d="M336.2,231.88s11.02,3.25,13.15,14.88c1.27,6.93-1.8,29.43-1.8,29.43l-21.3-7.92,9.95-36.38Z" style="fill:#C53F3F;"></path><path d="M332.62,247.34c-.07-.01-.37,1.19-.84,3.14-.5,2.08-1.13,4.71-1.83,7.61-.72,2.97-1.41,5.65-1.95,7.58-.53,1.93-.92,3.11-.85,3.13,.03,.01,.16-.27,.38-.79,.22-.52,.48-1.29,.8-2.24,.62-1.91,1.37-4.58,2.09-7.56,.73-2.97,1.31-5.68,1.69-7.65,.38-1.97,.57-3.2,.51-3.21Z" style="fill:#263238;"></path></g><g><path d="M270.09,292.58s-.77-4.7-3.06-7.36c-2.29-2.65-6.49-5.83-6.49-5.83h-1.18l-3.1-6.94-8.69-.42s1.84,16.94,6.04,22.11c4.2,5.16,8.45,4.88,10.22,4.36,1.77-.52,6.26-5.93,6.26-5.93Z" style="fill:#ffbf9d;"></path><g><path d="M285.09,227.12l6.86,33.87c.38,1.86-1.05,3.61-2.95,3.61h-47.23c-1.41,0-2.63-.98-2.94-2.35l-7.59-33.87c-.42-1.88,1.01-3.67,2.94-3.67h47.95c1.43,0,2.66,1.01,2.95,2.41Z" style="fill:#263238;"></path><path d="M285.09,227.12s0-.16-.11-.46c-.1-.3-.31-.74-.75-1.17-.44-.43-1.16-.83-2.08-.85-.9,0-1.93-.01-3.08-.02-4.66-.02-11.37-.04-19.65-.08-4.15,0-8.69-.02-13.57-.03-2.44,0-4.96,0-7.56-.01-1.3,0-2.62,0-3.95,0-1.42-.09-2.89,.92-3.26,2.37-.23,.7-.08,1.51,.09,2.15,.15,.68,.3,1.36,.46,2.04,.31,1.37,.61,2.76,.93,4.16,.63,2.8,1.26,5.66,1.91,8.57,1.3,5.82,2.65,11.85,4.03,18.03,.09,.37,.16,.8,.35,1.18,.18,.39,.44,.73,.76,1.02,.62,.58,1.5,.87,2.32,.83,1.56,0,3.12,0,4.66,0,3.08,0,6.12,0,9.1,0,5.97,0,11.73,0,17.21-.01,5.48,0,10.69-.02,15.57-.02,.59,.02,1.28,0,1.86-.29,.58-.26,1.07-.71,1.4-1.24,.33-.53,.5-1.16,.47-1.77-.04-.63-.2-1.16-.3-1.72-.45-2.22-.89-4.35-1.31-6.38-1.68-8.11-3.03-14.68-3.98-19.24-.48-2.25-.85-4.01-1.11-5.23-.13-.58-.23-1.03-.3-1.36-.07-.31-.12-.46-.12-.46,0,0,.02,.16,.07,.47,.06,.33,.14,.78,.25,1.37,.24,1.22,.58,2.98,1.02,5.24,.91,4.57,2.21,11.15,3.83,19.27,.41,2.03,.83,4.16,1.28,6.38,.1,.55,.26,1.13,.29,1.66,.02,.54-.13,1.09-.42,1.56-.29,.47-.72,.85-1.23,1.08-.52,.25-1.07,.27-1.69,.25-4.88,0-10.09-.01-15.57-.02-5.49,0-11.24,0-17.21-.01-2.98,0-6.02,0-9.1,0-1.54,0-3.09,0-4.66,0-.74,.03-1.46-.22-2-.71-.27-.24-.49-.54-.65-.86-.16-.32-.23-.68-.32-1.08-1.39-6.17-2.74-12.2-4.04-18.03-.65-2.91-1.3-5.77-1.93-8.57-.32-1.4-.63-2.79-.93-4.16-.15-.68-.31-1.37-.46-2.04-.18-.69-.28-1.3-.1-1.93,.33-1.25,1.56-2.12,2.83-2.05,1.34,0,2.65,0,3.95,0,2.6,0,5.12,0,7.56-.01,4.88-.01,9.42-.02,13.57-.03,8.28-.03,14.99-.06,19.65-.08,1.16,0,2.19-.02,3.08-.02,.88,0,1.58,.37,2.02,.78,.88,.85,.88,1.6,.93,1.56Z" style="fill:#455a64;"></path></g><path d="M256.97,242.56s-5.7,9.69-6.29,10.99c-.59,1.29-2.29,3.26-2.41,4.48-.12,1.22-1.47,8.21-1.35,10.74,.12,2.53,1.52,5.64,1.52,5.64l7.82-1.94s1.85-1.59,2.92-4c1.07-2.41,2.01-3.29,3.01-4.05,1-.76,4.93-3.24,5.4-4.13,.57-1.08,0-1.91,0-1.91,0,0,1.82-.88,2.12-1.89,.32-1.08,0-2.53-2.06-1.59s-9.64,6.34-10.4,5.76c-.76-.59,.18-2.01,.18-2.01,0,0,8.05-7.33,8.46-8.63,.41-1.29-.76-3.11-2.64-1.53s-8.05,7.81-8.7,7.81,.06-1.82,.06-1.82c0,0,3.17-6.81,3.7-8.64,.53-1.82,.24-4.23-1.35-3.29Z" style="fill:#ffbf9d;"></path><path d="M230.89,226.7s.08,.02,.23,.02c.18,0,.4,.01,.68,.02,.63,.01,1.5,.03,2.6,.05,2.3,.02,5.55,.04,9.55,.08,8.1,.02,19.23,.04,31.52,.07,1.54,0,3.06,0,4.56,0,.74-.05,1.39,.15,1.88,.62,.24,.23,.42,.51,.53,.82,.1,.3,.17,.7,.25,1.04,.64,2.83,1.24,5.56,1.8,8.17,1.1,5.21,2.09,9.9,2.92,13.86,.84,3.94,1.56,7.13,2.09,9.32,.26,1.07,.47,1.91,.62,2.52,.07,.26,.13,.48,.18,.65,.04,.15,.07,.22,.08,.22,0,0,0-.08-.03-.23l-.13-.66c-.13-.62-.31-1.47-.53-2.54-.47-2.25-1.13-5.43-1.94-9.35-.8-3.97-1.76-8.67-2.82-13.89-.54-2.61-1.13-5.35-1.77-8.18-.09-.36-.14-.69-.26-1.09-.13-.38-.36-.73-.65-1.01-.57-.58-1.46-.82-2.22-.76-1.5,0-3.02,0-4.56,0-12.29,.03-23.41,.05-31.52,.07-4,.03-7.25,.06-9.55,.08-1.1,.02-1.96,.03-2.6,.05-.27,0-.49,.02-.68,.02-.15,0-.23,.02-.23,.02Z" style="fill:#455a64;"></path><path d="M268.96,286.41s-.05-.28-.24-.76c-.22-.46-.54-1.14-1.09-1.88-1.06-1.48-3.07-3.31-5.84-4.05-.72-.2-1.45-.28-2.14-.32l.19,.11c-1.06-1.94-1.88-3.78-2.52-5.04-.62-1.27-1-2.03-1.05-2.01-.06,.03,.22,.83,.77,2.14,.57,1.31,1.3,3.12,2.4,5.17l.05,.1h.14c.66,.06,1.35,.14,2.03,.33,2.64,.7,4.6,2.4,5.7,3.79,1.12,1.4,1.52,2.47,1.61,2.43Z" style="fill:#ff9a6c;"></path><path d="M258.82,263.6c.07,.11,2.08-.98,4.48-2.44,2.4-1.47,4.3-2.75,4.23-2.86-.07-.11-2.07,.98-4.48,2.45-2.4,1.46-4.3,2.74-4.23,2.86Z" style="fill:#ff9a6c;"></path><path d="M256.3,234.87c.28,.92,1.17,1.46,1.99,1.21s1.25-1.2,.96-2.12c-.28-.92-1.17-1.46-1.99-1.21-.82,.25-1.25,1.2-.97,2.12Z" style="fill:#e0e0e0;"></path></g></g></g></g></g><g id="freepik--Robot--inject-169"><g><g><rect x="459.48" y="375.22" width="35.83" height="77.46" rx="15.31" ry="15.31" style="fill:#263238;"></rect><g style="opacity:.3;"><path d="M460.02,402.73c2.16,7.84,10.19,13.62,18.3,13.18,8.12-.44,15.48-7.05,16.78-15.07l-35.09,1.89Z"></path></g><g><rect x="451.5" y="299.9" width="50.83" height="110.26" rx="18.02" ry="18.02" style="fill:#e0e0e0;"></rect><path d="M484.31,410.16s.25-.03,.75-.06c.25-.02,.56-.04,.92-.06,.37-.03,.78-.12,1.26-.19,.48-.06,1.01-.18,1.58-.35,.29-.08,.59-.15,.9-.25,.31-.11,.62-.23,.95-.36,.67-.21,1.34-.6,2.07-.94,.69-.43,1.46-.83,2.18-1.41,1.47-1.09,2.96-2.52,4.2-4.37,1.24-1.84,2.26-4.09,2.73-6.65,.49-2.55,.27-5.37,.31-8.33,0-2.97-.01-6.1-.02-9.4-.02-13.18-.03-28.86-.06-46.28,0-4.35,0-8.82,0-13.38,.04-4.5-1.68-9.1-4.94-12.48-3.21-3.39-7.89-5.5-12.73-5.49-4.89,0-9.86,0-14.88,0-4.97-.03-9.8,2.17-13.05,5.74-1.64,1.77-2.89,3.86-3.69,6.1-.82,2.24-1.07,4.6-1.04,6.96,0,9.48-.01,18.62-.02,27.33-.01,17.42-.02,33.1-.03,46.28,.02,.41,.04,.81,.06,1.21,.03,.4,.11,.79,.16,1.19,.08,.79,.33,1.54,.51,2.3,.48,1.47,1.05,2.88,1.84,4.12,.73,1.28,1.68,2.36,2.62,3.38,1.01,.95,2.04,1.82,3.15,2.5,2.2,1.38,4.53,2.18,6.72,2.53,2.2,.35,4.26,.22,6.1,.26,3.67,.02,6.53,.04,8.48,.05,.96,.01,1.69,.02,2.21,.03,.5,0,.75,.03,.75,.03,0,0-.25,.02-.75,.03-.51,0-1.25,.01-2.21,.03-1.96,.01-4.81,.03-8.48,.05-1.84-.02-3.9,.12-6.14-.21-2.23-.33-4.6-1.13-6.84-2.53-1.13-.68-2.18-1.56-3.21-2.52-.96-1.02-1.93-2.13-2.68-3.42-.81-1.26-1.4-2.7-1.9-4.2-.19-.77-.44-1.53-.53-2.34-.05-.4-.14-.8-.17-1.21-.02-.41-.04-.82-.06-1.24-.02-13.18-.05-28.87-.08-46.29,0-8.71,0-17.85-.02-27.33-.03-2.37,.22-4.84,1.06-7.14,.81-2.3,2.11-4.46,3.79-6.28,3.34-3.67,8.32-5.93,13.43-5.9,5.03,0,9.99,0,14.89,0,4.98,0,9.8,2.17,13.1,5.66,3.35,3.47,5.12,8.21,5.07,12.83,0,4.56,0,9.02,0,13.38-.02,17.42-.04,33.1-.06,46.28,0,3.29-.01,6.43-.02,9.4-.06,2.96,.16,5.78-.36,8.39-.49,2.6-1.54,4.87-2.81,6.74-1.27,1.87-2.79,3.31-4.28,4.4-.72,.58-1.51,.98-2.21,1.4-.75,.34-1.42,.72-2.1,.93-.33,.12-.66,.24-.97,.35-.31,.1-.62,.16-.91,.24-.58,.16-1.11,.27-1.6,.33-.48,.06-.9,.15-1.27,.16-.36,.01-.67,.02-.93,.03-.5,.02-.75,.01-.75,.01Z" style="fill:#455a64;"></path></g><ellipse cx="431.22" cy="216.8" rx="6.63" ry="11.47" style="fill:#455a64;"></ellipse><path d="M439.16,262.38c-2.37,.31-4.75,.49-7.13,.46-1.15-.01-2.29-.07-3.43-.18-.19-.02-.69,.01-.85-.09,.11,.07,1.63,.27,.18,.02-.65-.11-1.3-.23-1.95-.37-1.1-.24-2.19-.54-3.27-.89-.53-.18-1.06-.39-1.59-.57-.79-.28,.36,.17,.39,.17-.26,0-.78-.36-1.01-.48-1-.5-1.98-1.07-2.91-1.7-.5-.34-1.28-1.04-.37-.23-.47-.42-.96-.82-1.42-1.25-.79-.75-1.47-1.57-2.2-2.36-.56-.61,.26,.36,.27,.37-.16-.09-.37-.5-.47-.66-.36-.52-.71-1.04-1.04-1.58-.61-1-1.17-2.04-1.67-3.1-.07-.16-.35-.57-.34-.74,0,.02,.47,1.21,.18,.43-.22-.6-.46-1.19-.66-1.8-.73-2.16-1.27-4.39-1.63-6.65-.03-.16-.19-.67-.12-.81,0-.01,.13,1.38,.08,.52-.04-.66-.13-1.31-.18-1.97-.1-1.47-.15-2.95-.14-4.43,.02-3.3,.3-6.6,.7-9.87,.04-.34,.08-.68,.13-1.02-.1,.76-.05,.36,.03-.16,.12-.79,.23-1.58,.36-2.37,.26-1.69,.55-3.38,.83-5.07,.6-3.62-.95-7.77-4.92-8.67-3.4-.78-8.02,1.03-8.67,4.92-2.1,12.6-4.23,25.78-.39,38.29,3.61,11.75,11.9,21.07,23.82,24.66,6.23,1.88,12.99,2.14,19.41,1.3,3.64-.48,7.24-2.9,7.05-7.05-.15-3.41-3.13-7.57-7.05-7.05h0Z" style="fill:#e0e0e0;"></path><circle cx="437.01" cy="269.9" r="11.46" style="fill:#263238;"></circle><g><path d="M504.98,332.58h-52.9c-7.33,0-13.43-5.97-14-13.7l-1.37-44.33c-.95-12.78,6.72-23.03,18.83-23.03h48.88c10.74,0,19.18,9.72,18.28,21.05l-3.72,46.4c-.62,7.7-6.7,13.61-14,13.61Z" style="fill:#e0e0e0;"></path><path d="M504.98,332.58s.26-.03,.77-.07c.51-.02,1.27-.12,2.24-.35,1.9-.46,4.8-1.61,7.29-4.5,1.23-1.43,2.3-3.29,2.96-5.49,.71-2.19,.67-4.74,.93-7.43,.42-5.39,.9-11.52,1.43-18.3,.53-6.78,1.12-14.21,1.74-22.18,.19-2,.26-4,.01-6.04-.27-2.03-.89-4.03-1.78-5.94-1.78-3.81-4.98-7.1-9.01-8.97-2.01-.94-4.24-1.45-6.51-1.53-2.28-.07-4.62-.02-6.97-.03-4.71,0-9.51,0-14.4,0-4.89,0-9.87,0-14.92,0-2.53,0-5.07,0-7.63,0-1.28,0-2.57,0-3.86,0-.64,0-1.29-.01-1.93,.01l-1.92,.1c-2.55,.28-5.02,1.06-7.19,2.35-2.18,1.28-4.03,3.04-5.46,5.08-2.87,4.1-4.05,9.15-3.85,13.98,.3,9.78,.59,19.21,.86,28.2,.14,4.49,.27,8.88,.4,13.14,.11,2.12,0,4.26,.42,6.24,.41,1.99,1.22,3.87,2.33,5.49,2.23,3.26,5.76,5.39,9.38,5.87,1.8,.22,3.65,.11,5.42,.14,1.78,0,3.52,0,5.22,0,13.59,.03,24.59,.06,32.21,.08,3.79,.02,6.74,.04,8.76,.05,.99,.01,1.75,.02,2.28,.03,.51,0,.78,.03,.78,.03,0,0-.26,.02-.78,.03-.53,0-1.29,.01-2.28,.03-2.02,.01-4.97,.03-8.76,.05-7.62,.02-18.62,.05-32.21,.08-1.7,0-3.44,0-5.22,0-1.78-.03-3.59,.1-5.47-.13-3.74-.48-7.38-2.68-9.68-6.03-1.15-1.67-1.98-3.6-2.41-5.65-.45-2.07-.33-4.18-.44-6.3-.14-4.26-.27-8.64-.42-13.13-.28-8.99-.58-18.43-.89-28.21-.2-4.91,.99-10.08,3.94-14.29,1.47-2.1,3.38-3.92,5.62-5.23,2.24-1.33,4.79-2.13,7.4-2.42l1.96-.1c.65-.02,1.29,0,1.94-.01h3.86c2.56,0,5.11,0,7.63,0,5.05,0,10.03,0,14.92,0,4.89,0,9.7,0,14.4,0,2.36,.02,4.67-.03,6.99,.04,2.33,.08,4.63,.6,6.69,1.58,4.13,1.92,7.41,5.3,9.22,9.21,.91,1.95,1.54,4,1.81,6.07,.25,2.07,.17,4.15-.02,6.13-.65,7.97-1.25,15.39-1.81,22.17-.56,6.78-1.06,12.91-1.5,18.29-.11,1.35-.22,2.65-.32,3.9-.06,.62-.14,1.24-.23,1.84-.15,.59-.23,1.18-.43,1.73-.68,2.23-1.78,4.11-3.04,5.55-2.54,2.92-5.49,4.04-7.42,4.47-.98,.21-1.75,.3-2.26,.3-.51,.02-.78,.01-.78,.01Z" style="fill:#455a64;"></path></g><path d="M466.9,246.48h17.67v8.82c0,4.17-3.38,7.55-7.55,7.55h-2.57c-4.17,0-7.55-3.38-7.55-7.55v-8.82h0Z" style="fill:#263238;"></path><g><rect x="428.52" y="188.19" width="93.6" height="58.84" rx="25.15" ry="25.15" style="fill:#e0e0e0;"></rect><path d="M496.97,247.06h-43.31c-3.4,0-6.69-.67-9.8-1.98-3-1.27-5.69-3.08-8-5.39-2.31-2.31-4.13-5-5.39-8-1.31-3.1-1.98-6.4-1.98-9.8v-8.55c0-3.4,.67-6.69,1.98-9.8,1.27-3,3.08-5.69,5.39-8,2.31-2.31,5-4.13,8-5.39,3.1-1.31,6.4-1.98,9.8-1.98h43.31c3.4,0,6.69,.67,9.8,1.98,3,1.27,5.69,3.08,8,5.39,2.31,2.31,4.13,5,5.39,8,1.31,3.1,1.98,6.4,1.98,9.8v8.55c0,3.4-.67,6.69-1.98,9.8-1.27,3-3.08,5.69-5.39,8-2.31,2.31-5,4.13-8,5.39-3.1,1.31-6.4,1.98-9.8,1.98Zm-43.31-58.85c-3.39,0-6.68,.66-9.78,1.97-2.99,1.27-5.68,3.08-7.99,5.38-2.31,2.31-4.12,4.99-5.38,7.98-1.31,3.1-1.97,6.39-1.97,9.78v8.55c0,3.39,.66,6.68,1.97,9.78,1.27,2.99,3.08,5.68,5.38,7.98,2.31,2.31,4.99,4.12,7.99,5.38,3.1,1.31,6.39,1.97,9.78,1.97h43.31c3.39,0,6.68-.66,9.78-1.97,2.99-1.27,5.68-3.08,7.99-5.38,2.31-2.31,4.12-4.99,5.38-7.98,1.31-3.1,1.97-6.39,1.97-9.78v-8.55c0-3.39-.66-6.68-1.97-9.78-1.27-2.99-3.08-5.68-5.38-7.98-2.31-2.31-4.99-4.12-7.99-5.38-3.1-1.31-6.39-1.97-9.78-1.97h-43.31Z" style="fill:#455a64;"></path></g><rect x="436.12" y="202.14" width="71.29" height="37.38" rx="15.74" ry="15.74" style="fill:#263238;"></rect><path d="M491.76,243.4s.19-.03,.55-.05c.36-.04,.9-.04,1.61-.13,1.4-.2,3.48-.58,5.91-1.72,2.41-1.14,5.2-3.07,7.41-6.19,1.09-1.55,2.06-3.36,2.71-5.42,.65-2.07,.88-4.34,.85-6.74,0-1.21,0-2.44,0-3.7,0-.63,0-1.27-.01-1.91-.04-.64-.06-1.28-.11-1.93-.28-2.59-1.13-5.22-2.58-7.63-1.44-2.39-3.44-4.6-5.96-6.21-2.51-1.61-5.47-2.71-8.61-2.99-1.56-.11-3.18-.08-4.82-.08-1.63,0-3.28,0-4.95,0-3.34,0-6.75,0-10.21,0-6.94,0-14.12,0-21.48,0-1.81,.05-3.62,.25-5.34,.77-1.7,.54-3.37,1.21-4.84,2.21-1.48,.97-2.86,2.08-3.99,3.41-.3,.31-.58,.64-.83,1-.26,.35-.53,.69-.77,1.04-.44,.74-.93,1.45-1.27,2.24-.78,1.53-1.27,3.17-1.6,4.81-.13,.83-.28,1.66-.28,2.49-.06,.83-.05,1.67-.05,2.5,.05,3.34-.26,6.64,.6,9.68,.34,1.54,.99,2.97,1.67,4.34,.77,1.32,1.6,2.6,2.63,3.69,2,2.22,4.44,3.92,7.05,4.93,2.61,1.06,5.33,1.4,7.95,1.37,2.63,0,5.16,.01,7.57,.02,9.63,.03,17.43,.06,22.84,.08,2.68,.02,4.77,.04,6.21,.05,.69,.01,1.23,.02,1.62,.03,.36,0,.55,.03,.55,.03,0,0-.19,.02-.55,.03-.38,0-.92,.01-1.62,.03-1.44,.01-3.53,.03-6.21,.05-5.41,.02-13.21,.05-22.84,.08-2.41,0-4.94,.01-7.57,.02-2.64,.04-5.45-.3-8.11-1.37-2.68-1.03-5.18-2.76-7.23-5.03-1.05-1.11-1.91-2.42-2.7-3.77-.7-1.4-1.36-2.87-1.72-4.45-.44-1.56-.57-3.2-.62-4.85,0-1.63,0-3.28,0-4.95,0-.83-.01-1.67,.05-2.53,0-.86,.16-1.7,.29-2.56,.34-1.69,.83-3.38,1.63-4.94,.35-.81,.85-1.54,1.3-2.3,.25-.37,.53-.71,.79-1.07,.26-.37,.54-.71,.85-1.03,1.16-1.36,2.58-2.51,4.09-3.5,1.51-1.02,3.23-1.71,4.97-2.27,1.77-.54,3.62-.74,5.49-.8,7.36,0,14.54,0,21.48,0,3.47,0,6.88,0,10.21,0,1.67,0,3.32,0,4.95,0,1.63,0,3.24-.02,4.86,.1,3.22,.29,6.25,1.43,8.81,3.08,2.57,1.66,4.61,3.92,6.08,6.37,1.47,2.46,2.33,5.16,2.61,7.81,.06,.66,.07,1.32,.11,1.97,0,.65,0,1.28,0,1.91,0,1.26,0,2.5,0,3.7,.02,2.41-.23,4.75-.9,6.84-.67,2.09-1.67,3.93-2.79,5.49-2.26,3.15-5.11,5.08-7.56,6.21-2.47,1.13-4.58,1.48-5.99,1.64-1.42,.09-2.17,.08-2.17,.08Z" style="fill:#263238;"></path><path d="M447.49,221.16c.55-1.35,1.17-2.67,1.83-3.97,.34-.67,.7-1.33,1.07-1.99,.17-.3,.34-.6,.52-.9,.05-.09,.25-.3,.25-.41,0,.17-.73,.17-.75,.05,.02,.12,.47,.54,.59,.68,.17,.21,.34,.43,.5,.65,.42,.57,.81,1.16,1.17,1.76,.7,1.17,1.29,2.39,1.76,3.67,.23,.63,.85,1.06,1.54,.87,.61-.17,1.1-.9,.87-1.54-.59-1.63-1.34-3.21-2.26-4.69-.46-.73-.97-1.44-1.51-2.12-.55-.7-1.14-1.55-2.09-1.68-1.17-.16-1.8,.75-2.32,1.64-.44,.75-.86,1.51-1.26,2.28-.86,1.64-1.62,3.32-2.32,5.03-.26,.62,.28,1.37,.87,1.54,.72,.2,1.28-.25,1.54-.87h0Z" style="fill:#455a64;"></path><path d="M484.14,222.05c.55-1.35,1.17-2.67,1.83-3.97,.34-.67,.7-1.33,1.07-1.99,.17-.3,.34-.6,.52-.9,.05-.09,.25-.3,.25-.41,0,.17-.73,.17-.75,.05,.02,.12,.47,.54,.59,.68,.17,.21,.34,.43,.5,.65,.42,.57,.81,1.16,1.17,1.76,.7,1.17,1.29,2.39,1.76,3.67,.23,.63,.85,1.06,1.54,.87,.61-.17,1.1-.9,.87-1.54-.59-1.63-1.34-3.21-2.26-4.69-.46-.73-.97-1.44-1.51-2.12-.55-.7-1.14-1.55-2.09-1.68-1.17-.16-1.8,.75-2.32,1.64-.44,.75-.86,1.51-1.26,2.28-.86,1.64-1.62,3.32-2.32,5.03-.26,.62,.28,1.37,.87,1.54,.72,.2,1.28-.25,1.54-.87h0Z" style="fill:#455a64;"></path><path d="M462.98,224.42h12.28c1.61,0,1.61-2.5,0-2.5h-12.28c-1.61,0-1.61,2.5,0,2.5h0Z" style="fill:#455a64;"></path><ellipse cx="521.03" cy="218.84" rx="8.21" ry="11.47" style="fill:#455a64;"></ellipse><path d="M499.74,252.04s-.02,.13-.09,.38c-.09,.29-.19,.64-.33,1.09-.32,1-.76,2.37-1.31,4.09-1.17,3.56-2.81,8.53-4.77,14.45h0v.03c-.62,1.23-1.67,2.32-3.02,2.95-.67,.33-1.41,.52-2.17,.6-.78,.06-1.49,.03-2.26,.05-3.02,.03-6.19,.06-9.46,.09-2.7,.02-5.33,.04-7.87,.06-1.28,0-2.5,.04-3.76,0-1.27-.09-2.48-.56-3.44-1.29-.97-.73-1.7-1.71-2.13-2.78-.4-1.04-.76-2.05-1.09-3.04-.65-1.98-1.18-3.84-1.65-5.55-.93-3.41-1.58-6.2-2.02-8.12-.2-.93-.35-1.67-.47-2.23-.1-.51-.14-.78-.12-.78,.02,0,.09,.26,.23,.76,.14,.55,.33,1.28,.57,2.2,.49,1.91,1.2,4.68,2.17,8.07,.49,1.69,1.04,3.55,1.7,5.51,.72,1.92,1.19,4.24,3.09,5.57,.9,.67,2.01,1.1,3.19,1.18,1.18,.02,2.46-.02,3.72-.02,2.54-.02,5.17-.05,7.87-.07,3.26-.02,6.44-.05,9.46-.07,.74-.02,1.52,.01,2.21-.04,.7-.07,1.39-.25,2-.55,1.25-.58,2.22-1.58,2.8-2.72v.03c2.01-5.9,3.72-10.85,4.93-14.39,.6-1.7,1.08-3.06,1.43-4.05,.16-.43,.29-.78,.39-1.06,.09-.24,.15-.36,.16-.36Z" style="fill:#263238;"></path><path d="M520.65,290.16s-.58-.17-1.61-.56c-.99-.47-2.44-1.16-3.99-2.39-1.56-1.2-3.25-2.87-4.76-5-1.47-2.15-2.83-4.73-3.55-7.68-.74-2.95-.59-5.9-.06-8.45,.52-2.56,1.45-4.76,2.43-6.47,.97-1.72,1.99-2.96,2.74-3.76,.36-.41,.68-.7,.9-.89,.21-.19,.33-.29,.34-.28,.1,.08-1.8,1.68-3.66,5.11-.92,1.7-1.79,3.87-2.28,6.38-.49,2.5-.61,5.38,.1,8.24,.7,2.87,2.01,5.41,3.44,7.53,1.46,2.11,3.09,3.77,4.6,4.99,3.03,2.45,5.44,3.12,5.38,3.25Z" style="fill:#263238;"></path><circle cx="476.91" cy="294.13" r="8.84" transform="translate(91.99 701.31) rotate(-78.27)" style="fill:#fff;"></circle><path d="M529.37,280.76c2.07,1.11,4.08,2.33,6,3.69,.36,.26,1.07,.59,1.31,.96-.02-.03-.98-.79-.35-.27,.21,.17,.42,.34,.63,.51,.98,.8,1.94,1.63,2.86,2.49,1.72,1.6,3.34,3.31,4.85,5.12,.31,.37,.83,.82,1.03,1.26-.02-.04-.74-1.01-.28-.35,.16,.22,.32,.43,.48,.65,.75,1.02,1.46,2.07,2.13,3.14,1.21,1.91,2.29,3.9,3.26,5.94,.25,.53,.64,1.15,.78,1.73,0-.04-.47-1.19-.19-.43,.09,.25,.2,.5,.3,.76,.49,1.27,.92,2.56,1.31,3.86,.39,1.3,.73,2.62,1.02,3.94,.13,.61,.26,1.23,.37,1.84,.06,.31,.11,.62,.16,.93,.02,.14,.24,1.45,.11,.61-.13-.83,.02,.2,.04,.31,.03,.31,.07,.62,.1,.94,.07,.73,.13,1.46,.18,2.19,.08,1.36,.12,2.72,.1,4.08-.02,1.57-.1,3.14-.24,4.7-.03,.31-.06,.62-.1,.94-.02,.15-.19,1.46-.07,.62,.12-.84-.04,.2-.06,.3-.07,.41-.14,.82-.21,1.24-.57,3.09-1.41,6.11-2.48,9.06-1.26,3.47,1.41,7.87,4.92,8.67,3.97,.9,7.33-1.21,8.67-4.92,8.21-22.67,2.16-48.79-14.86-65.77-4.31-4.3-9.31-8.03-14.68-10.9-3.25-1.74-7.82-.92-9.65,2.53-1.73,3.27-.94,7.79,2.53,9.65h0Z" style="fill:#e0e0e0;"></path><rect x="448" y="332.56" width="59.23" height="8.08" rx="3.45" ry="3.45" style="fill:#263238;"></rect><g style="opacity:.3;"><rect x="452.04" y="340.63" width="50.19" height="2.75"></rect></g><path d="M461.74,332.56l3.4-5.61c1.1-1.81,3.06-2.91,5.17-2.91h12.16c2.01,0,3.88,.99,5.01,2.66l4.55,6.71h-30.29" style="fill:#263238;"></path><path d="M485.75,294.13c-.06,0-.02-.79-.37-2.13-.35-1.32-1.24-3.25-3.23-4.74-.98-.73-2.22-1.35-3.64-1.59-1.41-.24-3.01-.19-4.52,.39-.76,.27-1.5,.67-2.17,1.18-.68,.5-1.3,1.11-1.81,1.83-1.05,1.41-1.65,3.21-1.67,5.07,.02,1.86,.61,3.67,1.66,5.07,.51,.71,1.13,1.33,1.81,1.83,.67,.51,1.41,.91,2.17,1.18,1.51,.58,3.11,.63,4.52,.39,1.42-.25,2.66-.86,3.64-1.59,1.99-1.49,2.88-3.43,3.23-4.74,.35-1.34,.31-2.14,.37-2.13,.02,0,.03,.19,.02,.57,0,.37-.04,.92-.2,1.62-.3,1.36-1.16,3.39-3.2,4.99-1.01,.78-2.3,1.45-3.79,1.72-1.48,.27-3.16,.23-4.76-.37-.81-.28-1.59-.7-2.3-1.23-.72-.52-1.38-1.17-1.93-1.92-1.12-1.49-1.76-3.4-1.77-5.37,.02-1.97,.65-3.89,1.78-5.37,.54-.75,1.2-1.4,1.93-1.92,.72-.53,1.5-.95,2.3-1.23,1.6-.6,3.28-.63,4.76-.37,1.49,.28,2.78,.94,3.79,1.72,2.04,1.59,2.9,3.62,3.2,4.99,.09,.34,.12,.66,.16,.93,.04,.27,.05,.5,.04,.69,0,.37,0,.57-.02,.57Z" style="fill:#263238;"></path><path d="M453.8,332.56s-.15-.53-.32-1.5c-.17-1.07-.4-2.45-.67-4.12-.53-3.58-1.24-8.35-2.03-13.62-.5-2.59-2.14-4.68-3.91-6.09h-.02c-2.49-2.38-4.62-4.42-6.22-5.94-.7-.69-1.28-1.27-1.75-1.72-.4-.41-.61-.64-.59-.66,.02-.02,.26,.17,.7,.54,.49,.43,1.1,.97,1.84,1.62,1.63,1.49,3.81,3.47,6.35,5.79h-.01c1.85,1.42,3.6,3.61,4.13,6.35,.79,5.35,1.42,10.16,1.88,13.67,.21,1.68,.38,3.07,.51,4.15,.11,.98,.15,1.53,.12,1.53Z" style="fill:#263238;"></path><path d="M502.3,333.4s0-.6,.1-1.67c.12-1.16,.28-2.68,.48-4.52,.22-1.93,.49-4.2,.78-6.69,.15-1.26,.31-2.58,.48-3.95,.08-.69,.17-1.38,.26-2.09,.09-.73,.26-1.45,.51-2.16,.49-1.42,1.29-2.68,2.23-3.73,.97-1.04,2-1.86,2.93-2.72,1.88-1.67,3.58-3.18,5.04-4.47,1.4-1.21,2.55-2.22,3.43-2.98,.82-.7,1.28-1.07,1.3-1.04,.02,.03-.39,.45-1.17,1.19-.85,.79-1.97,1.84-3.32,3.1-1.43,1.32-3.11,2.86-4.96,4.55-.92,.87-1.97,1.72-2.88,2.71-.9,1.01-1.65,2.21-2.12,3.56-.5,1.33-.56,2.76-.75,4.14-.17,1.37-.34,2.68-.51,3.95-.33,2.49-.63,4.75-.89,6.68-.26,1.83-.48,3.35-.64,4.5-.16,1.06-.27,1.64-.31,1.64Z" style="fill:#263238;"></path><circle cx="522.76" cy="270.9" r="13" style="fill:#263238;"></circle><g style="opacity:.2;"><polygon points="473.92 202.14 451.9 239.56 460.26 239.56 481.73 202.14 473.92 202.14" style="fill:#455a64;"></polygon></g><g style="opacity:.2;"><polygon points="485.35 202.14 464.4 239.52 467.55 239.52 488.56 202.14 485.35 202.14" style="fill:#455a64;"></polygon></g><g><g><path d="M394.7,219.73h15.06c.94,0,1.7,.76,1.7,1.7v.58c0,.94-.76,1.7-1.7,1.7h-15.06c-.94,0-1.7-.76-1.7-1.7v-.58c0-.94,.76-1.7,1.7-1.7Z" transform="translate(36.36 -55.93) rotate(8.33)" style="fill:#263238;"></path><path d="M396.79,215.51c-2.81-.62-5-3.36-4.98-6.24,0-.47,.06-.94,.28-1.36,.22-.41,.62-.75,1.08-.79,.57-.05,1.09,.34,1.41,.8,.32,.47,.49,1.02,.75,1.53,.76,1.51,2.3,2.61,3.99,2.82" style="fill:#263238;"></path><path d="M394.54,220.43l1.26-8.09c.64-4.07,4.45-6.86,8.52-6.23h0c4.12,.63,6.92,4.51,6.24,8.62l-1.17,6.99-14.85-1.29Z" style="fill:#263238;"></path></g><path d="M409.67,204.81c.19-.51,.31-1.17-.1-1.51-.35-.29-.87-.18-1.28,0-1.11,.48-2.02,1.35-2.72,2.34-.7,.99-1.22,2.09-1.73,3.19l3.01,.87c1.07-1.55,2.16-3.12,2.83-4.88Z" style="fill:#263238;"></path><path d="M413.65,208.24c.26-.47,.48-1.11,.12-1.51-.3-.34-.83-.31-1.27-.2-1.17,.31-2.2,1.04-3.04,1.91-.84,.87-1.52,1.89-2.19,2.9l2.85,1.31c1.29-1.37,2.6-2.76,3.52-4.41Z" style="fill:#263238;"></path><path d="M405.16,203.01c.19-.51,.31-1.17-.1-1.52-.35-.29-.87-.18-1.28,0-1.11,.48-2.02,1.35-2.72,2.34-.7,.99-1.22,2.09-1.73,3.19l3.01,.87c1.07-1.55,2.16-3.12,2.83-4.88Z" style="fill:#263238;"></path></g><g><path d="M552.07,341.19h15.06c.94,0,1.7,.76,1.7,1.7v.58c0,.94-.76,1.7-1.7,1.7h-15.06c-.94,0-1.7-.76-1.7-1.7v-.58c0-.94,.76-1.7,1.7-1.7Z" transform="translate(1040.25 790.31) rotate(-168.59)" style="fill:#263238;"></path><path d="M564.7,349.68c2.77,.77,4.81,3.63,4.64,6.5-.03,.46-.11,.94-.35,1.34-.24,.4-.66,.72-1.12,.73-.57,.02-1.07-.39-1.37-.88-.3-.49-.44-1.05-.67-1.57-.68-1.55-2.16-2.73-3.83-3.03" style="fill:#263238;"></path><path d="M567.22,344.89l-1.7,8.01c-.85,4.03-4.81,6.61-8.84,5.77h0c-4.08-.85-6.67-4.87-5.76-8.94l1.54-6.92,14.76,2.09Z" style="fill:#263238;"></path></g><path d="M560.45,363.4c.19,.51,.54,1.08,1.09,1.06,.45-.01,.77-.44,.96-.85,.51-1.1,.61-2.35,.48-3.56-.13-1.2-.48-2.37-.83-3.53l-2.83,1.35c.23,1.87,.46,3.76,1.14,5.52Z" style="fill:#263238;"></path><path d="M554.43,362.41c0,.54,.11,1.2,.62,1.38,.42,.15,.88-.13,1.2-.44,.88-.83,1.43-1.97,1.74-3.14,.32-1.17,.42-2.38,.52-3.59l-3.13,.23c-.47,1.83-.94,3.67-.95,5.56Z" style="fill:#263238;"></path><path d="M548.97,358.92c-.22,.5-.37,1.15,.02,1.52,.33,.31,.86,.23,1.28,.07,1.14-.42,2.09-1.24,2.84-2.19,.75-.95,1.33-2.02,1.9-3.09l-2.96-1.03c-1.16,1.49-2.32,3-3.08,4.72Z" style="fill:#263238;"></path><path d="M567.29,307.13c-.03,.08-.82-.24-2.15-.43-1.32-.2-3.21-.2-5.14,.46-1.93,.66-3.42,1.82-4.34,2.79-.93,.97-1.36,1.7-1.44,1.65-.05-.02,.27-.83,1.16-1.9,.88-1.06,2.42-2.34,4.45-3.03,2.03-.69,4.03-.63,5.37-.33,1.36,.3,2.11,.74,2.08,.79Z" style="fill:#263238;"></path><path d="M569.62,326.98c-.06,.07-.7-.49-1.89-1.11-1.18-.62-2.97-1.24-5-1.25-2.04,0-3.83,.6-5.02,1.21-1.2,.61-1.84,1.16-1.9,1.09-.04-.04,.53-.7,1.72-1.42,1.18-.71,3.05-1.42,5.19-1.41,2.15,0,4.01,.73,5.18,1.45,1.19,.72,1.75,1.39,1.71,1.43Z" style="fill:#263238;"></path><path d="M559.33,291.04c0,.09-.79,.04-2.01,.27-1.21,.22-2.87,.78-4.35,1.94-1.48,1.16-2.42,2.64-2.93,3.76-.51,1.13-.66,1.9-.74,1.89-.06,0-.04-.81,.4-2.03,.43-1.2,1.38-2.8,2.95-4.03,1.57-1.23,3.35-1.76,4.62-1.9,1.28-.14,2.07,.04,2.06,.09Z" style="fill:#263238;"></path><path d="M548.82,278.24c0,.09-.82,.04-2.08,.31-1.25,.26-2.96,.91-4.41,2.21-1.45,1.3-2.29,2.93-2.68,4.14-.4,1.22-.45,2.04-.54,2.03-.05,0-.14-.83,.18-2.14,.32-1.29,1.14-3.04,2.69-4.43,1.55-1.38,3.38-2.02,4.7-2.19,1.33-.18,2.15,0,2.15,.05Z" style="fill:#263238;"></path><path d="M417.01,274.1c-.05,.03-.5-.71-.82-2.05-.33-1.33-.47-3.29,.1-5.34,.57-2.05,1.69-3.66,2.66-4.63,.97-.98,1.73-1.39,1.76-1.34,.05,.07-.62,.57-1.49,1.59-.87,1-1.89,2.57-2.43,4.52-.54,1.95-.47,3.82-.24,5.12,.22,1.31,.54,2.09,.46,2.12Z" style="fill:#263238;"></path><path d="M412.19,252.87c0,.09-.82,.04-2.08,.24-1.26,.2-2.99,.71-4.61,1.81-1.61,1.09-2.73,2.51-3.38,3.61-.66,1.1-.92,1.87-1,1.85-.06-.01,.08-.83,.67-2.02,.59-1.18,1.71-2.71,3.41-3.87,1.7-1.15,3.54-1.63,4.85-1.74,1.33-.12,2.14,.06,2.13,.12Z" style="fill:#263238;"></path><path d="M407.73,238.06c-.04,.08-.75-.31-1.99-.67-1.22-.36-3.01-.64-4.94-.35-1.93,.3-3.55,1.1-4.61,1.81-1.07,.71-1.63,1.3-1.69,1.24-.04-.04,.43-.72,1.48-1.54,1.04-.82,2.71-1.72,4.74-2.03,2.03-.31,3.9,.04,5.13,.51,1.25,.47,1.9,.98,1.87,1.02Z" style="fill:#263238;"></path><path d="M485.54,420.03c.07,.12-2.96,2.02-6.77,4.24-3.81,2.22-6.96,3.92-7.03,3.79-.07-.12,2.96-2.02,6.77-4.24,3.81-2.22,6.96-3.92,7.03-3.79Z" style="fill:#455a64;"></path><path d="M482.37,417.13c.07,.12-2.1,1.52-4.85,3.13-2.75,1.6-5.04,2.8-5.11,2.68-.07-.12,2.1-1.52,4.85-3.13,2.75-1.6,5.04-2.8,5.11-2.68Z" style="fill:#455a64;"></path><path d="M476.28,410.22c-.14,0-.26-15.58-.26-34.79s.12-34.8,.26-34.8,.26,15.58,.26,34.8-.12,34.79-.26,34.79Z" style="fill:#455a64;"></path><path d="M566.04,351.61s.02,.28-.09,.77c-.11,.49-.32,1.18-.71,1.99-.4,.8-1,1.71-1.88,2.54-.87,.83-2.04,1.52-3.38,1.89-1.34,.36-2.72,.35-3.88,0-1.16-.34-2.09-.96-2.74-1.58-.65-.64-1.04-1.27-1.24-1.73-.2-.46-.24-.74-.22-.75,.09-.05,.4,1.06,1.7,2.21,.65,.56,1.53,1.1,2.62,1.39,1.08,.3,2.36,.29,3.61-.05,2.56-.68,4.25-2.61,5.07-4.1,.84-1.52,1.03-2.62,1.12-2.59Z" style="fill:#455a64;"></path><path d="M410.21,212.65c-.1,.02-.08-1.2-.97-2.84-.45-.8-1.13-1.69-2.11-2.4-.97-.71-2.26-1.19-3.65-1.28-1.39-.08-2.73,.23-3.78,.82-1.06,.58-1.85,1.37-2.39,2.11-1.08,1.51-1.22,2.73-1.32,2.7-.03,0-.03-.3,.1-.83,.12-.52,.39-1.26,.92-2.08,.53-.8,1.34-1.68,2.46-2.32,1.12-.65,2.56-1.01,4.05-.92,1.49,.1,2.87,.63,3.9,1.42,1.04,.78,1.73,1.75,2.15,2.61,.42,.87,.59,1.65,.65,2.18,.06,.53,.02,.83,0,.83Z" style="fill:#455a64;"></path><path d="M409.25,221.06c-.04,.15-3.28-.6-7.31-1.25-4.04-.66-7.34-.97-7.33-1.12,0-.07,.84-.08,2.19,0,1.35,.08,3.2,.28,5.23,.6,2.03,.33,3.85,.73,5.15,1.08,1.3,.34,2.09,.62,2.08,.69Z" style="fill:#455a64;"></path><path d="M567.35,346.41c0,.07-.9,.05-2.33-.08-1.43-.13-3.4-.39-5.56-.8-2.16-.41-4.09-.89-5.47-1.29-1.38-.4-2.22-.71-2.2-.78,.02-.07,.89,.11,2.29,.42,1.4,.31,3.33,.73,5.47,1.13,2.14,.4,4.1,.72,5.51,.94,1.41,.22,2.29,.37,2.28,.44Z" style="fill:#455a64;"></path></g><path d="M489.07,294.13c-.07,0,0-1.1-.48-2.99-.48-1.85-1.72-4.57-4.5-6.67-1.38-1.03-3.11-1.9-5.11-2.24-1.99-.34-4.23-.27-6.35,.54-1.07,.37-2.11,.94-3.06,1.65-.96,.7-1.83,1.56-2.55,2.57-1.49,1.98-2.32,4.52-2.35,7.14,.02,2.62,.86,5.16,2.35,7.14,.72,1,1.59,1.87,2.55,2.57,.95,.71,1.98,1.28,3.06,1.65,2.13,.81,4.37,.88,6.36,.54,2-.35,3.73-1.22,5.11-2.25,2.78-2.1,4.02-4.82,4.5-6.67,.48-1.89,.41-2.99,.48-2.99,.02,0,.02,.27,.01,.79,0,.26-.01,.58-.07,.96-.05,.38-.09,.81-.23,1.29-.43,1.89-1.63,4.71-4.47,6.91-1.41,1.08-3.19,2-5.26,2.38-2.05,.37-4.38,.31-6.6-.52-1.12-.38-2.2-.96-3.19-1.7-1-.72-1.91-1.62-2.67-2.67-1.55-2.06-2.43-4.71-2.45-7.44,.02-2.73,.9-5.38,2.46-7.44,.75-1.04,1.66-1.94,2.67-2.67,.99-.74,2.07-1.32,3.19-1.7,2.22-.83,4.54-.88,6.6-.52,2.07,.38,3.85,1.3,5.26,2.38,2.84,2.2,4.05,5.02,4.47,6.91,.13,.48,.18,.91,.23,1.29,.06,.38,.07,.7,.07,.96,0,.52,0,.79-.01,.79Z" style="fill:#C53F3F;"></path><path d="M410.21,212.65c-.1,.02-.08-1.2-.97-2.84-.45-.8-1.13-1.69-2.11-2.4-.97-.71-2.26-1.19-3.65-1.28-1.39-.08-2.73,.23-3.78,.82-1.06,.58-1.85,1.37-2.39,2.11-1.08,1.51-1.22,2.73-1.32,2.7-.03,0-.03-.3,.1-.83,.12-.52,.39-1.26,.92-2.08,.53-.8,1.34-1.68,2.46-2.32,1.12-.65,2.56-1.01,4.05-.92,1.49,.1,2.87,.63,3.9,1.42,1.04,.78,1.73,1.75,2.15,2.61,.42,.87,.59,1.65,.65,2.18,.06,.53,.02,.83,0,.83Z" style="fill:#455a64;"></path><path d="M409.25,221.06c-.04,.15-3.28-.6-7.31-1.25-4.04-.66-7.34-.97-7.33-1.12,0-.07,.84-.08,2.19,0,1.35,.08,3.2,.28,5.23,.6,2.03,.33,3.85,.73,5.15,1.08,1.3,.34,2.09,.62,2.08,.69Z" style="fill:#455a64;"></path></g></g></svg>
