<?xml version="1.0" standalone="no"?>
<!DOCTYPE svg PUBLIC "-//W3C//DTD SVG 20010904//EN"
 "http://www.w3.org/TR/2001/REC-SVG-20010904/DTD/svg10.dtd">
<svg version="1.0" xmlns="http://www.w3.org/2000/svg"
 width="840.000000pt" height="807.000000pt" viewBox="0 0 840.000000 807.000000"
 preserveAspectRatio="xMidYMid meet">

<g transform="translate(0.000000,807.000000) scale(0.100000,-0.100000)"
fill="#000000" stroke="none">
<path d="M2724 7650 c-92 -10 -175 -34 -247 -72 -146 -78 -227 -248 -227 -478
0 -326 140 -486 475 -545 49 -8 177 -20 284 -25 351 -18 581 -50 862 -121
1259 -316 2281 -1266 2699 -2507 114 -339 177 -666 200 -1039 12 -195 33 -294
82 -386 95 -177 292 -268 548 -254 188 11 300 52 402 146 113 104 158 245 158
499 0 608 -151 1271 -424 1858 -255 550 -587 1017 -1038 1460 -771 758 -1743
1249 -2788 1408 -220 33 -347 45 -618 56 -251 11 -266 11 -368 0z"/>
<path d="M2780 5813 c-198 -16 -352 -94 -435 -219 -102 -154 -132 -425 -64
-596 79 -202 266 -298 639 -328 603 -48 1089 -281 1427 -683 275 -328 428
-718 473 -1207 13 -143 32 -216 77 -302 94 -179 277 -266 538 -255 296 13 463
122 541 353 59 176 36 561 -56 924 -169 668 -585 1257 -1184 1674 -461 322
-1065 546 -1671 620 -153 19 -229 24 -285 19z"/>
<path d="M818 5774 c-224 -54 -331 -217 -359 -548 -16 -181 -15 -2904 0 -3106
21 -262 73 -457 185 -685 166 -338 411 -602 733 -792 434 -255 998 -308 1498
-141 667 222 1138 791 1241 1498 20 138 15 416 -10 549 -109 588 -461 1063
-986 1331 -458 233 -952 256 -1518 71 -52 -17 -95 -31 -95 -31 -1 0 -2 289 -3
643 -1 541 -4 658 -17 745 -45 283 -155 423 -366 468 -83 17 -228 17 -303 -2z
m1666 -2784 c296 -76 526 -321 577 -616 19 -110 7 -272 -29 -376 -86 -253
-289 -441 -550 -509 -102 -27 -269 -29 -367 -5 -262 65 -477 263 -568 524 -29
82 -31 96 -31 232 0 133 2 152 27 225 103 295 345 498 649 544 80 12 202 4
292 -19z"/>
</g>
</svg>
